<?xml version="1.0" encoding="iso-8859-1"?>
<!-- Uploaded to: SVG Repo, www.svgrepo.com, Generator: SVG Repo Mixer Tools -->
<svg height="800px" width="800px" version="1.1" id="Layer_1" xmlns="http://www.w3.org/2000/svg" xmlns:xlink="http://www.w3.org/1999/xlink" 
	 viewBox="0 0 512 512" xml:space="preserve">
<path style="fill:#ffcf0294;" d="M0,256.006C0,397.402,114.606,512.004,255.996,512C397.394,512.004,512,397.402,512,256.006
	C512.009,114.61,397.394,0,255.996,0C114.606,0,0,114.614,0,256.006z"/>
<path style="fill:#FFCF02;" d="M512,256.005c0-17.42-1.756-34.428-5.069-50.87c-0.32-0.329-0.634-0.665-0.975-0.975
	c-0.487-0.532-110.181-110.227-110.711-110.711c-4.279-4.691-10.38-7.69-17.217-7.69H133.972c-12.898,0-23.387,10.491-23.387,23.386
	v279.521c0,6.558,2.732,12.474,7.093,16.724v13.756c0,2.353,1.221,4.337,2.985,5.628c0.432,0.59,79.789,79.947,80.378,80.378
	c0.323,0.442,0.727,0.787,1.135,1.135c17.358,3.714,35.351,5.713,53.819,5.713C397.394,512.004,512,397.401,512,256.005z"/>
<g>
	<path style="fill:#F4F6F9;" d="M378.028,85.76H133.972c-12.898,0-23.386,10.491-23.386,23.386v279.522
		c0,6.558,2.731,12.474,7.093,16.724v13.755c0,3.917,3.172,7.093,7.093,7.093s7.093-3.177,7.093-7.093v-7.307
		c0.705,0.064,1.385,0.213,2.106,0.213h244.055c0.721,0,1.401-0.149,2.106-0.213v7.307c0,3.917,3.172,7.093,7.093,7.093
		s7.093-3.177,7.093-7.093v-13.755c4.363-4.251,7.093-10.166,7.093-16.724V109.146C401.413,96.251,390.926,85.76,378.028,85.76z
		 M387.227,109.146v175.228h-63.891c0.001-0.828-0.093-1.669-0.399-2.491l-21.28-56.747c-1.372-3.671-5.466-5.507-9.137-4.153
		c-3.664,1.378-5.521,5.466-4.149,9.134l20.347,54.256h-13.755c0.001-0.828-0.093-1.669-0.399-2.491l-21.28-56.747
		c-1.378-3.671-5.466-5.507-9.137-4.153c-3.664,1.378-5.521,5.466-4.149,9.134l20.347,54.256h-20.797V99.947h118.481
		C383.098,99.947,387.227,104.071,387.227,109.146z M133.972,99.947H245.36v184.427h-56.798c0.001-0.828-0.093-1.669-0.399-2.491
		l-21.28-56.747c-1.378-3.671-5.472-5.507-9.137-4.153c-3.664,1.378-5.521,5.466-4.149,9.134l20.347,54.256h-17.952
		c1.299-1.93,1.738-4.39,0.756-6.688l-24.404-57.103c-1.306-3.038-4.469-4.562-7.571-4.096V109.146
		C124.773,104.071,128.902,99.947,133.972,99.947z M124.773,238.979l18.925,44.283c0.178,0.414,0.447,0.751,0.689,1.111h-19.614
		C124.773,284.373,124.773,238.979,124.773,238.979z M133.972,397.867c-5.071,0-9.199-4.125-9.199-9.199V298.56h262.453v90.108
		c0,5.074-4.129,9.199-9.199,9.199L133.972,397.867L133.972,397.867z"/>
	<path style="fill:#F4F6F9;" d="M365.947,319.84c-3.921,0-7.093,3.177-7.093,7.093v28.373c0,3.917,3.172,7.093,7.093,7.093
		c3.921,0,7.093-3.177,7.093-7.093v-28.373C373.04,323.017,369.868,319.84,365.947,319.84z"/>
</g>
</svg>