<svg xmlns="http://www.w3.org/2000/svg" viewBox="0 0 400 300" width="406" height="306" class="illustration styles_illustrationTablet__1DWOa"><g id="_495_business_conference_flatline" data-name="#495_business_conference_flatline"><rect x="73.12" y="45.06" width="253.35" height="83.74" fill="#fff"></rect><path d="M326.47,129.31H73.12a.5.5,0,0,1-.5-.5V45.06a.5.5,0,0,1,.5-.5H326.47a.5.5,0,0,1,.5.5v83.75A.5.5,0,0,1,326.47,129.31Zm-252.85-1H326V45.56H73.62Z" fill="#d1d3d4"></path><path d="M171.8,116.06H163a.48.48,0,0,1-.47-.48V73.73a.47.47,0,0,1,.47-.47h8.78a.48.48,0,0,1,.48.47v41.85A.49.49,0,0,1,171.8,116.06Zm-8.3-1h7.82V74.21H163.5Z" fill="#d1d3d4"></path><path d="M188,116.06h-8.77a.48.48,0,0,1-.48-.48V91a.48.48,0,0,1,.48-.48H188a.48.48,0,0,1,.48.48v24.54A.48.48,0,0,1,188,116.06Zm-8.3-1h7.82V91.52h-7.82Z" fill="#d1d3d4"></path><path d="M204.18,116.06h-8.77a.48.48,0,0,1-.48-.48V79.77a.47.47,0,0,1,.48-.48h8.77a.47.47,0,0,1,.48.48v35.81A.48.48,0,0,1,204.18,116.06Zm-8.3-1h7.83V80.24h-7.83Z" fill="#d1d3d4"></path><path d="M220.38,116.06H211.6a.49.49,0,0,1-.48-.48V100.22a.48.48,0,0,1,.48-.48h8.78a.47.47,0,0,1,.47.48v15.36A.48.48,0,0,1,220.38,116.06Zm-8.3-1h7.82V100.69h-7.82Z" fill="#d1d3d4"></path><path d="M236.57,116.06h-8.78a.49.49,0,0,1-.48-.48V79.77a.48.48,0,0,1,.48-.48h8.78a.48.48,0,0,1,.48.48v35.81A.49.49,0,0,1,236.57,116.06Zm-8.3-1h7.82V80.24h-7.82Z" fill="#d1d3d4"></path><path d="M236.36,59.59H221.51a.48.48,0,1,1,0-1h14.85a.48.48,0,1,1,0,1Z" fill="#d1d3d4"></path><path d="M236.36,62.87H221.51a.48.48,0,1,1,0-.95h14.85a.48.48,0,1,1,0,.95Z" fill="#d1d3d4"></path><path d="M231.2,66.15h-9.69a.48.48,0,0,1-.48-.48.49.49,0,0,1,.48-.48h9.69a.48.48,0,0,1,.47.48A.47.47,0,0,1,231.2,66.15Z" fill="#d1d3d4"></path><path d="M178.62,52.25H163.77a.48.48,0,0,1-.48-.48.47.47,0,0,1,.48-.48h14.85a.47.47,0,0,1,.47.48A.48.48,0,0,1,178.62,52.25Z" fill="#d1d3d4"></path><path d="M173.45,55.52h-9.68a.48.48,0,1,1,0-1h9.68a.48.48,0,1,1,0,1Z" fill="#d1d3d4"></path><path d="M217.08,85.55c-4.68,0-8.76-5.21-12-9.42-2.17-2.77-4.26-5.38-5.57-5.35-1.54,0-3.65,1.27-5.88,2.56-3,1.75-6.48,3.73-9.69,3.56-6-.33-17.34-13.63-17.82-14.2a.47.47,0,0,1,0-.67.49.49,0,0,1,.68,0c.11.14,11.53,13.56,17.14,13.86,3,.16,6.25-1.74,9.16-3.43,2.34-1.35,4.55-2.63,6.33-2.68h.06c1.82,0,3.8,2.52,6.29,5.71,3.22,4.13,7.26,9.27,11.54,9,3.75-.18,5.54-3.44,7.44-6.89s3.68-6.72,7.44-7.43a.48.48,0,0,1,.55.38.47.47,0,0,1-.38.55c-3.31.63-5,3.7-6.77,7-1.94,3.53-4,7.18-8.23,7.39Z" fill="#d1d3d4"></path><path d="M244.08,116.06H155.93a.49.49,0,0,1-.48-.48.48.48,0,0,1,.48-.48h88.15a.47.47,0,0,1,.47.48A.48.48,0,0,1,244.08,116.06Z" fill="#d1d3d4"></path><path d="M166.66,64.29a1.95,1.95,0,1,1,1.94-2A2,2,0,0,1,166.66,64.29Zm0-2.94a1,1,0,1,0,1,1A1,1,0,0,0,166.66,61.35Z" fill="#d1d3d4"></path><path d="M232.29,72.68a1.95,1.95,0,1,1,2-2A1.94,1.94,0,0,1,232.29,72.68Zm0-2.93a1,1,0,1,0,1,1A1,1,0,0,0,232.29,69.75Z" fill="#d1d3d4"></path><path d="M94,141.84h37.44a20.85,20.85,0,0,1,20.85,20.85v81.59a0,0,0,0,1,0,0H73.12a0,0,0,0,1,0,0V162.7A20.85,20.85,0,0,1,94,141.84Z" fill="#fff"></path><path d="M152.27,244.79H73.12a.5.5,0,0,1-.5-.5V162.7A21.38,21.38,0,0,1,94,141.34h37.44a21.38,21.38,0,0,1,21.36,21.36v81.59A.51.51,0,0,1,152.27,244.79Zm-78.65-1h78.15V162.7a20.39,20.39,0,0,0-20.36-20.36H94A20.38,20.38,0,0,0,73.62,162.7Z" fill="#231f20"></path><path d="M70,173.28h0a9.62,9.62,0,0,1,9.62,9.62v61.39a0,0,0,0,1,0,0H60.36a0,0,0,0,1,0,0V182.89A9.62,9.62,0,0,1,70,173.28Z" fill="#fff"></path><path d="M79.59,244.79H60.36a.5.5,0,0,1-.5-.5v-61.4a10.12,10.12,0,0,1,20.23,0v61.4A.5.5,0,0,1,79.59,244.79Zm-18.73-1H79.09v-60.9a9.12,9.12,0,0,0-18.23,0Z" fill="#231f20"></path><path d="M155.41,173.28h0a9.62,9.62,0,0,1,9.62,9.62v61.39a0,0,0,0,1,0,0H145.79a0,0,0,0,1,0,0V182.89A9.62,9.62,0,0,1,155.41,173.28Z" fill="#fff"></path><path d="M165,244.79H145.79a.51.51,0,0,1-.5-.5v-61.4a10.12,10.12,0,0,1,20.24,0v61.4A.51.51,0,0,1,165,244.79Zm-18.74-1h18.24v-60.9a9.12,9.12,0,0,0-18.24,0Z" fill="#231f20"></path><rect x="79.59" y="197.62" width="66.2" height="17.82" fill="#fff"></rect><path d="M145.79,215.94H79.59a.5.5,0,0,1-.5-.5V197.62a.5.5,0,0,1,.5-.5h66.2a.5.5,0,0,1,.5.5v17.82A.5.5,0,0,1,145.79,215.94Zm-65.7-1h65.2V198.12H80.09Z" fill="#231f20"></path><rect x="79.59" y="215.44" width="66.2" height="28.85" fill="#fff"></rect><path d="M145.79,244.79H79.59a.51.51,0,0,1-.5-.5V215.44a.5.5,0,0,1,.5-.5h66.2a.5.5,0,0,1,.5.5v28.85A.5.5,0,0,1,145.79,244.79Zm-65.7-1h65.2V215.94H80.09Z" fill="#231f20"></path><path d="M262.25,141.84h37.44a20.85,20.85,0,0,1,20.85,20.85v81.59a0,0,0,0,1,0,0H241.4a0,0,0,0,1,0,0V162.7A20.85,20.85,0,0,1,262.25,141.84Z" fill="#fff"></path><path d="M320.54,244.79H241.4a.5.5,0,0,1-.5-.5V162.7a21.38,21.38,0,0,1,21.35-21.36h37.44A21.38,21.38,0,0,1,321,162.7v81.59A.5.5,0,0,1,320.54,244.79Zm-78.64-1H320V162.7a20.38,20.38,0,0,0-20.35-20.36H262.25A20.38,20.38,0,0,0,241.9,162.7Z" fill="#231f20"></path><path d="M238.25,173.28h0a9.62,9.62,0,0,1,9.62,9.62v61.39a0,0,0,0,1,0,0H228.64a0,0,0,0,1,0,0V182.89A9.62,9.62,0,0,1,238.25,173.28Z" fill="#fff"></path><path d="M247.87,244.79H228.64a.5.5,0,0,1-.5-.5v-61.4a10.12,10.12,0,0,1,20.23,0v61.4A.5.5,0,0,1,247.87,244.79Zm-18.73-1h18.23v-60.9a9.12,9.12,0,0,0-18.23,0Z" fill="#231f20"></path><path d="M323.69,173.28h0a9.62,9.62,0,0,1,9.62,9.62v61.39a0,0,0,0,1,0,0H314.07a0,0,0,0,1,0,0V182.89A9.62,9.62,0,0,1,323.69,173.28Z" fill="#fff"></path><path d="M333.3,244.79H314.07a.5.5,0,0,1-.5-.5v-61.4a10.12,10.12,0,0,1,20.23,0v61.4A.5.5,0,0,1,333.3,244.79Zm-18.73-1H332.8v-60.9a9.12,9.12,0,0,0-18.23,0Z" fill="#231f20"></path><rect x="247.87" y="197.62" width="66.2" height="17.82" fill="#fff"></rect><path d="M314.07,215.94h-66.2a.5.5,0,0,1-.5-.5V197.62a.5.5,0,0,1,.5-.5h66.2a.5.5,0,0,1,.5.5v17.82A.5.5,0,0,1,314.07,215.94Zm-65.7-1h65.2V198.12h-65.2Z" fill="#231f20"></path><rect x="247.87" y="215.44" width="66.2" height="28.85" fill="#fff"></rect><path d="M314.07,244.79h-66.2a.5.5,0,0,1-.5-.5V215.44a.5.5,0,0,1,.5-.5h66.2a.5.5,0,0,1,.5.5v28.85A.5.5,0,0,1,314.07,244.79Zm-65.7-1h65.2V215.94h-65.2Z" fill="#231f20"></path><rect x="174.14" y="178.46" width="43.77" height="65.83" fill="#fff"></rect><path d="M217.91,244.79H174.14a.51.51,0,0,1-.5-.5V178.46a.5.5,0,0,1,.5-.5h43.77a.5.5,0,0,1,.5.5v65.83A.51.51,0,0,1,217.91,244.79Zm-43.27-1h42.77V179H174.64Z" fill="#231f20"></path><rect x="200.83" y="174.57" width="12.94" height="3.88" fill="#231f20"></rect><path d="M213.77,179H200.83a.5.5,0,0,1-.5-.5v-3.89a.5.5,0,0,1,.5-.5h12.94a.5.5,0,0,1,.5.5v3.89A.5.5,0,0,1,213.77,179Zm-12.44-1h11.94v-2.89H201.33Z" fill="#231f20"></path><path d="M206.19,175.54a.51.51,0,0,1-.5-.5V155.85c0-5,13.57-10.45,15.11-11a.5.5,0,1,1,.37.93c-4,1.58-14.48,6.48-14.48,10.12V175A.5.5,0,0,1,206.19,175.54Z" fill="#231f20"></path><ellipse cx="221.72" cy="145.26" rx="3.37" ry="1.07" transform="translate(-32.85 71.4) rotate(-17.05)" fill="#231f20"></ellipse><path d="M219.69,147.18c-.81,0-1.49-.2-1.67-.78-.36-1.18,1.87-2.21,3.24-2.63s3.8-.83,4.17.36h0c.36,1.18-1.87,2.21-3.25,2.63A8.89,8.89,0,0,1,219.69,147.18Zm-.68-1.09a5.31,5.31,0,0,0,2.88-.28,5.24,5.24,0,0,0,2.54-1.38,5.32,5.32,0,0,0-2.87.29A5.48,5.48,0,0,0,219,146.09Zm5.49-1.62h0Z" fill="#231f20"></path><rect x="180.06" y="174.57" width="12.94" height="3.88" fill="#231f20"></rect><path d="M193,179H180.06a.5.5,0,0,1-.5-.5v-3.89a.5.5,0,0,1,.5-.5H193a.5.5,0,0,1,.5.5v3.89A.5.5,0,0,1,193,179Zm-12.44-1H192.5v-2.89H180.56Z" fill="#231f20"></path><path d="M187.61,175.54a.5.5,0,0,1-.5-.5V155.85c0-4.51-6.14-10.16-6.21-10.22a.5.5,0,0,1,.68-.74c.26.25,6.53,6,6.53,11V175A.51.51,0,0,1,187.61,175.54Z" fill="#231f20"></path><ellipse cx="180.06" cy="145.9" rx="1.07" ry="3.37" transform="translate(-34.03 234.63) rotate(-61.53)" fill="#231f20"></ellipse><path d="M182.37,148.26a7.53,7.53,0,0,1-3.06-1c-1.26-.69-3.25-2.14-2.66-3.23h0c.52-1,2.46-.45,4.16.47a9,9,0,0,1,2.07,1.5c.8.84.76,1.4.58,1.73A1.14,1.14,0,0,1,182.37,148.26Zm-4.8-3.71a7.34,7.34,0,0,0,5,2.7,5.27,5.27,0,0,0-2.22-1.85A5.2,5.2,0,0,0,177.57,144.55Z" fill="#231f20"></path><path d="M132.24,178.82s5,18.61,2.29,18.61H95.45V181Z" fill="#231f20"></path><path d="M134.53,197.93H95.45a.51.51,0,0,1-.5-.5V181a.5.5,0,0,1,.47-.5l36.79-2.18a.52.52,0,0,1,.51.37c.74,2.76,4.32,16.63,2.63,18.82A1,1,0,0,1,134.53,197.93Zm-38.58-1h38.58c.93-.54-.29-8.55-2.67-17.58L96,181.47Z" fill="#231f20"></path><path d="M102.74,109.46c-.47-2.13-1.66-3.88-2.15-6a13.7,13.7,0,0,1,.29-7.13,5.69,5.69,0,0,1,1.44-2.51,2.63,2.63,0,0,1,2.71-.59A18.1,18.1,0,0,1,110.51,87a2,2,0,0,1,1.27-.49,1.42,1.42,0,0,1,1.14,1.44,4.11,4.11,0,0,1-.59,1.91,12.46,12.46,0,0,1,5.56-3,3.49,3.49,0,0,1,1.92-.06,1.46,1.46,0,0,1,1.07,1.45c-.09.77-.95,1.25-1.14,2a7.4,7.4,0,0,1,3.39-.7A3.52,3.52,0,0,1,126,91.22c.87,1.68-.18,3.74-1.53,5.06.82-.12,1.51.78,1.48,1.62a4.15,4.15,0,0,1-1.06,2.22c-1,1.36-1.25,2.88-1.86,4.44a13.47,13.47,0,0,1-2.47,4.22,10.78,10.78,0,0,1-6,3.08,18.91,18.91,0,0,1-6.79-.18,9.4,9.4,0,0,1-3.39-1.15C103.41,109.9,103,110.63,102.74,109.46Z" fill="#fff"></path><path d="M111.89,112.61a22.84,22.84,0,0,1-4.18-.42,10.19,10.19,0,0,1-3.56-1.22,1.54,1.54,0,0,0-.74-.24c-.61-.07-1-.27-1.17-1.16h0a16.4,16.4,0,0,0-1-2.92,17.37,17.37,0,0,1-1.11-3.09,14.1,14.1,0,0,1,.3-7.41A6.15,6.15,0,0,1,102,93.42a3.23,3.23,0,0,1,2.8-.83,18.75,18.75,0,0,1,5.43-6,2.42,2.42,0,0,1,1.62-.59,1.94,1.94,0,0,1,1.61,2,2.23,2.23,0,0,1,0,.37,13.29,13.29,0,0,1,4.35-2,4,4,0,0,1,2.2,0,2,2,0,0,1,1.42,2,2,2,0,0,1-.41,1,6.3,6.3,0,0,1,2.19-.23,4,4,0,0,1,3.28,2c.89,1.71.11,3.63-1,5a2,2,0,0,1,.29.22,2.23,2.23,0,0,1,.73,1.72,4.46,4.46,0,0,1-1.16,2.51,8.92,8.92,0,0,0-1.3,2.86c-.15.48-.3,1-.49,1.46a13.84,13.84,0,0,1-2.57,4.38,11.32,11.32,0,0,1-6.25,3.24A15.78,15.78,0,0,1,111.89,112.61Zm-8.51-2.92h.14a2.48,2.48,0,0,1,1.18.4,9.55,9.55,0,0,0,3.2,1.08,18.35,18.35,0,0,0,6.6.17,10.1,10.1,0,0,0,5.68-2.93,12.54,12.54,0,0,0,2.36-4c.19-.47.34-.93.48-1.39a9.87,9.87,0,0,1,1.46-3.18,3.67,3.67,0,0,0,1-1.92A1.21,1.21,0,0,0,125,97a.6.6,0,0,0-.5-.18.51.51,0,0,1-.53-.28.52.52,0,0,1,.1-.6c1.24-1.21,2.16-3,1.43-4.45A3,3,0,0,0,123.08,90a6.66,6.66,0,0,0-3.14.65.51.51,0,0,1-.7-.6,3.2,3.2,0,0,1,.66-1.14,1.74,1.74,0,0,0,.47-.8c0-.39-.34-.77-.72-.9a3.06,3.06,0,0,0-1.64.07,12,12,0,0,0-5.33,2.89.52.52,0,0,1-.81-.61,3.82,3.82,0,0,0,.54-1.67c0-.41-.29-.91-.67-.94a1.57,1.57,0,0,0-.93.4,17.55,17.55,0,0,0-5.32,6.07.52.52,0,0,1-.67.23,2.13,2.13,0,0,0-2.15.5,5,5,0,0,0-1.3,2.29,13.07,13.07,0,0,0-.27,6.86,16.3,16.3,0,0,0,1,2.91,17.58,17.58,0,0,1,1.11,3.11h0c.06.28.11.34.12.34Z" fill="#231f20"></path><path d="M133.49,181c-2.84-13.22-8.08-56-9.33-56.58-3-1.39-19.11-3-22.75,3.23-1.13,1.94-1.87,44.12-.41,55.37Z" fill="#fff"></path><path d="M101,183.53a.53.53,0,0,1-.52-.45c-1.45-11.24-.75-53.58.49-55.69,3.91-6.67,20.5-4.77,23.41-3.44.78.36,1.49,4.3,4.72,26.38,1.75,12,3.57,24.4,4.89,30.56a.52.52,0,0,1-.09.42.51.51,0,0,1-.38.2l-32.49,2Zm13.86-59.85c-5.27,0-11.11,1-13,4.23-1,2-1.87,42.1-.41,54.56l31.41-1.95c-1.32-6.37-3.08-18.4-4.78-30-1.67-11.37-3.55-24.24-4.24-25.64A28.91,28.91,0,0,0,114.86,123.68Z" fill="#231f20"></path><polygon points="118.05 130.51 116.01 135.34 120.96 164.04 117.44 170.01 111.73 165.82 113.73 135.1 108.65 128.81 118.05 130.51" fill="#231f20"></polygon><path d="M117.44,170.51a.5.5,0,0,1-.29-.09l-5.71-4.19a.52.52,0,0,1-.21-.44l2-30.52-5-6.15a.48.48,0,0,1,0-.56.5.5,0,0,1,.52-.24l9.4,1.7a.53.53,0,0,1,.36.26.5.5,0,0,1,0,.43l-2,4.69L121.46,164a.57.57,0,0,1-.07.34l-3.52,6a.49.49,0,0,1-.33.23Zm-5.19-4.93,5,3.7,3.15-5.34-4.93-28.52a.55.55,0,0,1,0-.28l1.8-4.25-7.46-1.35,4.23,5.25a.49.49,0,0,1,.11.35Z" fill="#231f20"></path><path d="M110.85,182.4l-5.25-57,15.48-.54,1.46,56.82,16,3c-2.27-20-4.08-57-6-59.07-7.12-7.75-25.4-5.16-25.4-5.16s-13.16.64-17.32,8.34c-1,1.93-1.44,49.67-1.3,58Z" fill="#68e1fd"></path><path d="M119.87,120.25l.83,5.4s-.85,7.87-6.79,6.49a12.82,12.82,0,0,1-8.31-6.74l-.76-14.28s4.38-2.38,3-11.92a29.41,29.41,0,0,0,15.43,2s2.11,9.82,1.44,14.42A5.07,5.07,0,0,1,119.87,120.25Z" fill="#fff"></path><path d="M115.25,132.82a6.33,6.33,0,0,1-1.46-.18,13.22,13.22,0,0,1-8.66-7,.61.61,0,0,1,0-.18l-.75-14.28a.51.51,0,0,1,.27-.48s4-2.39,2.73-11.4a.5.5,0,0,1,.2-.48.49.49,0,0,1,.53-.05,29.19,29.19,0,0,0,15.14,2,.51.51,0,0,1,.57.4c.09.41,2.13,10,1.45,14.6a5.56,5.56,0,0,1-4.76,5l.75,4.87a.66.66,0,0,1,0,.14c0,.18-.5,4.35-3.14,6.22A4.78,4.78,0,0,1,115.25,132.82Zm-9.14-7.55a12.37,12.37,0,0,0,7.91,6.37,4.12,4.12,0,0,0,3.46-.55c2.1-1.49,2.63-4.92,2.7-5.43l-.82-5.33a.53.53,0,0,1,.5-.6,4.53,4.53,0,0,0,4.34-4.19c.57-3.89-.94-11.77-1.34-13.77a30.5,30.5,0,0,1-14.4-1.74c.88,7.78-2.12,10.65-3.09,11.36Z" fill="#231f20"></path><path d="M116.82,107s2.82,5.18,2,6-3,0-3,0" fill="#fff"></path><path d="M117.6,113.75a6.34,6.34,0,0,1-2-.36.5.5,0,1,1,.34-.94c.6.21,2,.51,2.47.08.2-.42-.76-2.93-2.07-5.34a.5.5,0,0,1,.88-.48c1.37,2.52,2.81,5.7,1.87,6.56A2.21,2.21,0,0,1,117.6,113.75Z" fill="#231f20"></path><ellipse cx="114.02" cy="106.01" rx="0.58" ry="1.34" transform="translate(-4.35 4.89) rotate(-2.41)" fill="#231f20"></ellipse><ellipse cx="121.66" cy="106.01" rx="0.58" ry="1.34" transform="translate(-4.35 5.21) rotate(-2.41)" fill="#231f20"></ellipse><path d="M108.65,108.67a8,8,0,0,0-2-2.32,2.72,2.72,0,0,0-1.52-.67,2.46,2.46,0,0,0-1.31.38,4.83,4.83,0,0,0-2.28,3.21,3.78,3.78,0,0,0,.07,1.86,4.21,4.21,0,0,0,1.85,2.23,13,13,0,0,0,2.7,1.17" fill="#fff"></path><path d="M106.12,115a.44.44,0,0,1-.16,0,13,13,0,0,1-2.82-1.23,4.75,4.75,0,0,1-2.07-2.5,4.31,4.31,0,0,1-.08-2.12,5.35,5.35,0,0,1,2.54-3.55,2.85,2.85,0,0,1,1.58-.46,3.32,3.32,0,0,1,1.82.78,8.7,8.7,0,0,1,2.17,2.47.52.52,0,0,1-.18.7.51.51,0,0,1-.71-.18,7.64,7.64,0,0,0-1.91-2.17,2.36,2.36,0,0,0-1.23-.57,1.92,1.92,0,0,0-1,.32,4.34,4.34,0,0,0-2,2.86,3.33,3.33,0,0,0,.06,1.61,3.74,3.74,0,0,0,1.63,1.94,12.52,12.52,0,0,0,2.6,1.12.51.51,0,0,1,.32.65A.5.5,0,0,1,106.12,115Z" fill="#231f20"></path><path d="M119.87,120.25a16.25,16.25,0,0,1-10-1.64s5.08,7.81,10.75,6.71Z" fill="#231f20"></path><path d="M119.53,125.93c-5.4,0-9.85-6.74-10-7.05a.51.51,0,0,1,0-.61.49.49,0,0,1,.59-.11,16,16,0,0,0,9.64,1.6.49.49,0,0,1,.39.08.48.48,0,0,1,.21.33l.79,5.07a.5.5,0,0,1-.4.57A6.38,6.38,0,0,1,119.53,125.93Zm-8.08-6.1c1.68,2,5,5.43,8.63,5.07l-.63-4.07A16.91,16.91,0,0,1,111.45,119.83Z" fill="#231f20"></path><path d="M112.33,110.89a4.88,4.88,0,1,1,4.88-4.88A4.89,4.89,0,0,1,112.33,110.89Zm0-8.73a3.85,3.85,0,1,0,3.85,3.85A3.86,3.86,0,0,0,112.33,102.16Z" fill="#231f20"></path><path d="M121.75,110.89a4.88,4.88,0,1,1,4.88-4.88A4.88,4.88,0,0,1,121.75,110.89Zm0-8.73a3.85,3.85,0,1,0,3.84,3.85A3.85,3.85,0,0,0,121.75,102.16Z" fill="#231f20"></path><path d="M168,129.91c-.31-.59,2-3.67,2.24-4.38q1.48-3.87,3-7.74a3.5,3.5,0,0,1,1.4-2,.7.7,0,0,1,.44-.1c.45.06.53.68.49,1.13a38.5,38.5,0,0,1-.83,5.34c1.84-2.85,3.78-5.65,5.79-8.39.31-.43.73-.9,1.26-.84a1.26,1.26,0,0,1,.81.59,6.16,6.16,0,0,1,.86,4.14c-.36,4.51-2.67,8.54-5.17,12.21-1.21,1.77-2.12,3.6-3.24,5.43-.23.37-2.46,3.35-2.28,3.71Z" fill="#fff"></path><path d="M172.7,139.51a.49.49,0,0,1-.45-.28h0c0-.07-1-1.94-2.07-4-1.25-2.39-2.6-5-2.67-5.11h0c-.3-.6.22-1.55,1.49-3.57.32-.51.65-1,.73-1.23l2-5.31.93-2.44a4.06,4.06,0,0,1,1.64-2.28,1.2,1.2,0,0,1,.76-.15c.65.1,1,.74.93,1.68s-.2,1.9-.35,2.84c1.41-2.11,2.88-4.2,4.37-6.24.23-.31.84-1.15,1.74-1a1.74,1.74,0,0,1,1.17.8,6.53,6.53,0,0,1,1,4.48c-.37,4.73-2.86,9-5.25,12.46-.72,1.06-1.32,2.12-2,3.24-.41.72-.82,1.45-1.27,2.17,0,.09-.2.3-.41.59a21.85,21.85,0,0,0-1.79,2.8V139a.52.52,0,0,1-.39.5Zm.45-.74.06.15a.41.41,0,0,0-.05-.16Zm-4.69-9,2.63,5.06,1.57,3c.31-.52.79-1.23,1.51-2.25.19-.26.32-.45.37-.53.44-.71.85-1.43,1.25-2.14.62-1.09,1.26-2.22,2-3.31,2.31-3.4,4.72-7.47,5.07-12a5.61,5.61,0,0,0-.75-3.8c-.17-.23-.33-.36-.46-.37-.32,0-.66.46-.78.62-2,2.72-3.95,5.54-5.78,8.37a.52.52,0,0,1-.94-.4,37.61,37.61,0,0,0,.83-5.26,1.08,1.08,0,0,0-.07-.59l-.11,0a3.08,3.08,0,0,0-1.15,1.74l-.94,2.44q-1,2.66-2,5.31a9.74,9.74,0,0,1-.82,1.41A13.5,13.5,0,0,0,168.46,129.73Z" fill="#231f20"></path><path d="M132.61,125.63s15.65,12.22,18.87,13.82,14.9-13.82,14.9-13.82L177,134.71s-15.57,24.21-25.51,23.83S129.11,141,129.11,141" fill="#68e1fd"></path><path d="M175.89,128.2h-.1a.51.51,0,0,1-.41-.6c.68-3.67-.95-5-1-5a.51.51,0,0,1-.1-.72.52.52,0,0,1,.71-.11c.09.07,2.24,1.7,1.42,6A.5.5,0,0,1,175.89,128.2Z" fill="#231f20"></path><path d="M117,116.71a6.6,6.6,0,0,1-5.64-3.18.5.5,0,0,1,.14-.69.49.49,0,0,1,.69.13,5.7,5.7,0,0,0,7.07,2.33.5.5,0,0,1,.66.25.51.51,0,0,1-.25.66A7.26,7.26,0,0,1,117,116.71Z" fill="#231f20"></path><path d="M134.43,163.6h-.05a.52.52,0,0,1-.46-.57l2.57-26.43a.53.53,0,0,1,.57-.46.51.51,0,0,1,.46.56L135,163.13A.52.52,0,0,1,134.43,163.6Z" fill="#231f20"></path><polygon points="105.03 174.15 111.77 145.59 140.06 147.75 132.24 178.82 105.03 174.15" fill="#fff"></polygon><path d="M132.24,179.34h-.09L105,174.66a.51.51,0,0,1-.35-.22.57.57,0,0,1-.07-.4l6.74-28.57a.51.51,0,0,1,.54-.4l28.28,2.17a.49.49,0,0,1,.38.21.55.55,0,0,1,.09.43L132.74,179A.52.52,0,0,1,132.24,179.34Zm-26.58-5.6,26.2,4.49,7.55-30-27.24-2.09Z" fill="#231f20"></path><path d="M99.27,162s6.75-4.54,9.2-5.43c3.3-1.21,6.37-1.57,6.8.15s-.81,6-2.14,7-4.2,1.86-5.82,3.43-8,3.57-8,3.57Z" fill="#fff"></path><path d="M99.27,171.19a.5.5,0,0,1-.31-.1.53.53,0,0,1-.21-.42V162a.5.5,0,0,1,.23-.42c.28-.19,6.83-4.59,9.31-5.5,1.73-.63,4.89-1.57,6.52-.7a1.82,1.82,0,0,1,1,1.21c.47,1.83-.76,6.34-2.32,7.54a13.79,13.79,0,0,1-2.3,1.27,13.89,13.89,0,0,0-3.48,2.12c-1.68,1.64-8,3.61-8.25,3.7Zm.51-9V170c2.09-.69,6.06-2.15,7.17-3.24a14.41,14.41,0,0,1,3.75-2.31,13.73,13.73,0,0,0,2.12-1.16c1.12-.86,2.35-4.91,2-6.47a.81.81,0,0,0-.44-.55c-.93-.49-3-.2-5.68.76C106.53,157.78,101,161.44,99.78,162.23Z" fill="#231f20"></path><path d="M91,126.65S58.5,153.28,58.5,167.77s41.75,4.57,41.75,4.57l.75-13.53-21.25,2.63,20.5-15.86Z" fill="#68e1fd"></path><polygon points="96.73 231.55 99.17 240.67 108.84 240.67 107.99 226.52 96.73 231.55" fill="#fff"></polygon><path d="M108.84,241.19H99.17a.51.51,0,0,1-.5-.39l-2.44-9.11a.53.53,0,0,1,.29-.61l11.26-5a.52.52,0,0,1,.72.44l.86,14.15a.49.49,0,0,1-.14.38A.5.5,0,0,1,108.84,241.19Zm-9.28-1h8.74l-.78-12.86-10.18,4.55Z" fill="#231f20"></path><path d="M107.64,186.83c-1.53-9.26-15.49-11.41-17.78-2.29-4.22,16.83,4.58,51.27,4.58,51.27l14.79-.76S109.17,196.09,107.64,186.83Z" fill="#231f20"></path><path d="M94.44,236.31a.5.5,0,0,1-.49-.37c-.36-1.41-8.78-34.76-4.57-51.52,1.2-4.8,5.28-6.35,8.67-6.22,4.34.18,9.19,3.17,10.08,8.55,1.52,9.19,1.6,46.71,1.6,48.3a.49.49,0,0,1-.47.5l-14.8.76Zm3.2-57.12a7.11,7.11,0,0,0-7.29,5.47c-3.9,15.55,3.52,46.75,4.47,50.63l13.91-.71c0-4.48-.17-39.11-1.58-47.67-.81-4.85-5.21-7.55-9.14-7.71Z" fill="#231f20"></path><path d="M99.17,240.67s-13.11,12.16-9.11,14,18.78-7.1,18.78-7.1l-.07-8.15Z" fill="#231f20"></path><path d="M91.44,255.43a3.8,3.8,0,0,1-1.59-.29,1.72,1.72,0,0,1-1-1.33c-.57-3.59,8.92-12.5,10-13.51a.53.53,0,0,1,.27-.13l9.61-1.23a.51.51,0,0,1,.39.11.5.5,0,0,1,.17.38l.07,8.15a.47.47,0,0,1-.24.43C107.73,248.84,96.7,255.43,91.44,255.43Zm8-14.29c-4.09,3.82-9.94,10.21-9.58,12.51a.75.75,0,0,0,.46.58c3,1.4,13.84-4.39,18.07-6.93l-.07-7.3Z" fill="#231f20"></path><polygon points="135.03 231.55 132.59 240.67 122.91 240.67 123.77 226.52 135.03 231.55" fill="#fff"></polygon><path d="M132.59,241.19h-9.68a.48.48,0,0,1-.37-.17.49.49,0,0,1-.14-.38l.86-14.15a.51.51,0,0,1,.24-.41.51.51,0,0,1,.48,0l11.26,5a.53.53,0,0,1,.29.61l-2.44,9.11A.52.52,0,0,1,132.59,241.19Zm-9.13-1h8.73l2.23-8.31-10.18-4.55Z" fill="#231f20"></path><path d="M122.91,188.13c1.45-10,15.07-15.22,17.6-1.3,3.11,17.07-4,46.76-4,46.76l-15-1.45S121.46,198.13,122.91,188.13Z" fill="#231f20"></path><path d="M136.47,234.09h-.05l-15-1.45a.49.49,0,0,1-.45-.5c0-.34,0-34.16,1.41-44.09h0c.8-5.54,5.41-10.11,10.28-10.2,2,0,6.82.76,8.3,8.89,3.09,17-4,46.67-4,47A.5.5,0,0,1,136.47,234.09ZM122,231.69l14.07,1.36c.85-3.68,6.79-30.46,3.94-46.13-1-5.2-3.59-8.16-7.3-8.07s-8.49,3.66-9.31,9.35C122.07,197.43,122,227.62,122,231.69Z" fill="#231f20"></path><path d="M132.59,240.67s11,10.06,7,11.92-16.73-5-16.73-5l.08-8.15Z" fill="#231f20"></path><path d="M137.9,253.39c-5.2,0-14.76-5.12-15.23-5.37a.5.5,0,0,1-.26-.44l.08-8.15a.5.5,0,0,1,.17-.38.51.51,0,0,1,.39-.11l9.6,1.23a.53.53,0,0,1,.27.13c.88.8,8.58,7.91,8.07,11.28a1.91,1.91,0,0,1-1.14,1.46A4.6,4.6,0,0,1,137.9,253.39Zm-14.48-6.1c3.68,2,13,6.25,16,4.84a.88.88,0,0,0,.57-.7c.36-2.37-5.28-8.12-7.63-10.29L123.48,240Z" fill="#231f20"></path><rect x="124.84" y="139" width="8.64" height="2.09" fill="#231f20"></rect><path d="M88.74,161a.51.51,0,0,1-.52-.51V135.94a.52.52,0,1,1,1,0v24.57A.51.51,0,0,1,88.74,161Z" fill="#231f20"></path><path d="M74.25,162.72a.51.51,0,0,1-.51-.45.52.52,0,0,1,.44-.58l26.75-3.39a.51.51,0,1,1,.13,1l-26.74,3.4Z" fill="#231f20"></path><path d="M271.77,94.88l.33-.54c3.9-6,12.17-6.57,17.57-2.11a4.59,4.59,0,0,0,1.27.86,8,8,0,0,0,1.78.23c2.08.28,3.54,2.13,4.7,3.88,3.37,5.12,4,13.59,4,19.61,0,4.7-1.12,9.54-4,13.26-4.09,5.27-11.05,7.5-17.7,8.06-7.36.62-15.57-.84-20.27-6.54-2-2.39-3.18-5.71-2.13-8.63.92-2.54,3.3-4.21,5.09-6.24C267.64,110.74,267.66,101.7,271.77,94.88Z" fill="#fff"></path><path d="M276.57,138.85c-7.63,0-13.93-2.43-17.6-6.88-1.87-2.27-3.44-5.88-2.23-9.21a13.36,13.36,0,0,1,3.57-4.75c.55-.54,1.12-1.1,1.62-1.68,2.89-3.28,4.14-7.46,5.47-11.89a42.45,42.45,0,0,1,3.86-9.86h0c.12-.19.23-.38.35-.56a11.52,11.52,0,0,1,8-5.18A13.22,13.22,0,0,1,290,91.77l.15.12a2.37,2.37,0,0,0,1.95.79c.22,0,.44,0,.65.06,2.31.3,3.88,2.26,5.12,4.14,2.71,4.11,4.08,10.81,4.07,19.93,0,3.79-.72,9.22-4.12,13.62-4.64,6-12.41,7.81-18.11,8.29C278.67,138.81,277.6,138.85,276.57,138.85Zm-4.3-43.66a41.72,41.72,0,0,0-3.74,9.59c-1.3,4.35-2.65,8.85-5.71,12.34-.53.6-1.12,1.18-1.69,1.73a12.38,12.38,0,0,0-3.28,4.31c-1,2.87.37,6,2,8.05,3.91,4.75,11.12,7.06,19.77,6.33,5.47-.46,12.9-2.19,17.27-7.83,3.2-4.14,3.88-9.3,3.88-12.9,0-8.88-1.3-15.37-3.87-19.28-1.1-1.66-2.46-3.38-4.29-3.62a5.48,5.48,0,0,0-.57,0,3.46,3.46,0,0,1-2.64-1.06l-.14-.12A12,12,0,0,0,279.82,90a10.38,10.38,0,0,0-7.22,4.65l-.33.53Z" fill="#231f20"></path><path d="M263.25,179.57s-4.81,18.05-2.22,18.05h37.91V181.68Z" fill="#231f20"></path><path d="M298.94,198.12H261a1,1,0,0,1-.81-.42c-1.64-2.13,1.83-15.59,2.54-18.26a.52.52,0,0,1,.52-.37L299,181.18a.5.5,0,0,1,.47.5v15.94A.51.51,0,0,1,298.94,198.12Zm-35.31-18c-2.3,8.7-3.48,16.46-2.59,17h37.4v-15Z" fill="#231f20"></path><path d="M284,183l-11.35-.7-15.56,2.93c2.2-19.42,4-55.31,5.8-57.31,6.91-7.52,24.64-5,24.64-5s12.77.62,16.81,8.09c1,1.87,1.39,48.19,1.25,56.28Z" fill="#68e1fd"></path><path d="M276.87,126.92c-1.9,2.39-8.87,56.81-8.87,56.81h19.45l2.83-58.07Z" fill="#231f20"></path><path d="M287.45,184.23H268a.52.52,0,0,1-.37-.17.48.48,0,0,1-.12-.4c.71-5.58,7-54.62,9-57a.53.53,0,0,1,.35-.19l13.4-1.26a.53.53,0,0,1,.4.14.51.51,0,0,1,.15.39L288,183.75A.5.5,0,0,1,287.45,184.23Zm-18.88-1H287l2.77-57-12.58,1.19C275.73,130.39,271.31,161.92,268.57,183.23Z" fill="#231f20"></path><path d="M285.07,113.33a7,7,0,0,1,1.8-2,2.3,2.3,0,0,1,1.34-.59,2.09,2.09,0,0,1,1.15.34,4.23,4.23,0,0,1,2,2.82,3.37,3.37,0,0,1-.06,1.64,3.75,3.75,0,0,1-1.63,2,10.71,10.71,0,0,1-2.38,1" fill="#fff"></path><path d="M287.3,119a.5.5,0,0,1-.49-.35.51.51,0,0,1,.32-.65,11,11,0,0,0,2.27-1,3.26,3.26,0,0,0,1.42-1.68,2.89,2.89,0,0,0,.05-1.38,3.79,3.79,0,0,0-1.77-2.48,1.76,1.76,0,0,0-.87-.27,2,2,0,0,0-1.05.48,6.71,6.71,0,0,0-1.66,1.9.52.52,0,0,1-.71.18.51.51,0,0,1-.18-.7,7.6,7.6,0,0,1,1.92-2.19,3,3,0,0,1,1.64-.7,2.63,2.63,0,0,1,1.42.41,4.8,4.8,0,0,1,2.27,3.17,3.87,3.87,0,0,1-.08,1.89,4.24,4.24,0,0,1-1.84,2.24,11.59,11.59,0,0,1-2.49,1.08A.51.51,0,0,1,287.3,119Z" fill="#231f20"></path><polygon points="303.14 203.79 295.33 239.57 285.95 239.57 284.28 193.33 303.14 203.79" fill="#fff"></polygon><path d="M295.33,240.08H286a.52.52,0,0,1-.52-.49l-1.67-46.24a.51.51,0,0,1,.25-.46.53.53,0,0,1,.52,0l18.86,10.46a.51.51,0,0,1,.25.56l-7.8,35.78A.52.52,0,0,1,295.33,240.08Zm-8.89-1h8.48l7.63-35-17.72-9.83Z" fill="#231f20"></path><path d="M295.33,239.57s10.29,12.17,8.84,13.59c-3.05,3-18.22-6.88-18.22-6.88l.07-7.91Z" fill="#231f20"></path><path d="M302.42,254.2c-5.06,0-15.4-6.63-16.75-7.51a.47.47,0,0,1-.22-.42l.07-7.91a.48.48,0,0,1,.17-.37.57.57,0,0,1,.39-.12l9.32,1.2a.59.59,0,0,1,.32.17c3.95,4.68,10.35,12.76,8.8,14.28A2.88,2.88,0,0,1,302.42,254.2Zm-16-8.19c5.76,3.72,15.38,8.75,17.37,6.8.4-1-4.2-7.38-8.74-12.77l-8.57-1.11Z" fill="#231f20"></path><path d="M251.08,201.94l11.83,37.25h9.39L268,196.58s4.48-9.16-5.06-4.87S251.08,201.94,251.08,201.94Z" fill="#fff"></path><path d="M272.3,239.71h-9.39a.51.51,0,0,1-.49-.36L250.59,202.1a.59.59,0,0,1,0-.35c.1-.25,2.5-6.19,12.13-10.51,3.12-1.4,5.14-1.56,6.17-.49,1.53,1.57,0,5.09-.37,5.92l4.28,42.47a.49.49,0,0,1-.13.4A.52.52,0,0,1,272.3,239.71Zm-9-1h8.44l-4.24-42.05a.54.54,0,0,1,.05-.28c.47-.95,1.58-3.9.62-4.89-.66-.69-2.45-.43-5,.72-8.35,3.75-11.07,8.83-11.51,9.79Z" fill="#231f20"></path><path d="M262.91,239.57l-9.33,11.87c3.88,1.8,18.72-5.16,18.72-5.16l-.07-7.91Z" fill="#231f20"></path><path d="M255.31,252.23a4.62,4.62,0,0,1-1.94-.34.49.49,0,0,1-.18-.76l9.33-11.87a.49.49,0,0,1,.33-.19l9.31-1.2a.54.54,0,0,1,.39.12.53.53,0,0,1,.18.37l.07,7.91a.5.5,0,0,1-.29.46C271.17,247.36,260.62,252.23,255.31,252.23Zm-.89-1c3.62.63,13.35-3.36,17.37-5.22l-.06-7L263.18,240Z" fill="#231f20"></path><path d="M262,181.68s-9.29-1.93-11,20.63c0,0,10.08,1.67,28.12,4.22,18.83,2.66,24.1,4.84,24.1,4.84s8.22-21.08.82-31.8S262,181.68,262,181.68Z" fill="#231f20"></path><path d="M303.3,211.87a.43.43,0,0,1-.19,0c-.05,0-5.48-2.19-24-4.81-17.84-2.52-28-4.2-28.13-4.22a.5.5,0,0,1-.41-.53c.93-12.63,4.29-17.68,7-19.69a6.33,6.33,0,0,1,4.45-1.42c2.62-1,35.16-12.58,42.55-1.88,3.14,4.56,4,11.39,2.44,20.3a69.66,69.66,0,0,1-3.21,12,.5.5,0,0,1-.27.28A.48.48,0,0,1,303.3,211.87Zm-51.68-10c2.15.35,11.93,1.92,27.65,4.14s22.06,4.12,23.73,4.7c1.13-3.13,7.28-21.36.71-30.88-7.09-10.29-41.15,2.17-41.5,2.29a.42.42,0,0,1-.27,0,5.11,5.11,0,0,0-3.83,1.24C255.66,185.28,252.56,190,251.62,201.89Z" fill="#231f20"></path><path d="M277.16,120.77l-.77,8.35s2.54,2.91,5.95,3.18a7.3,7.3,0,0,0,7.41-4.59c.41-7.48,1-14.94,1.07-22.41a.66.66,0,0,0-.1-.46.7.7,0,0,0-.63-.14l-2.2.27-.21-4.14a12.18,12.18,0,0,0-1.44,2.19l-6.13-.54-.71-3.71a3.31,3.31,0,0,0-.56,2c-.08.68-.36,1.46-1,1.64a2,2,0,0,1-.91,0l-4.61-.91s-.83,12.46-.77,13.51C271.76,119.31,277.16,120.77,277.16,120.77Z" fill="#fff"></path><path d="M283,132.93l-.74,0a10.56,10.56,0,0,1-6.35-3.39.63.63,0,0,1-.14-.44l.72-7.88c-1.4-.49-5.38-2.23-5.59-6.23,0-.12.54-13.61,1-14a.58.58,0,0,1,.5-.13l4.62.91a1.59,1.59,0,0,0,.64,0c.34-.09.53-.65.59-1.14l0-.29a3.28,3.28,0,0,1,.68-2,.61.61,0,0,1,.6-.17.58.58,0,0,1,.42.46l.63,3.27,5.29.47a12.84,12.84,0,0,1,1.32-2,.59.59,0,0,1,.65-.18.58.58,0,0,1,.4.53l.18,3.5,1.56-.19a1.1,1.1,0,0,1,1.41,1.2c-.09,5.73-.44,11.54-.77,17.16-.11,1.75-.21,3.51-.31,5.27a.53.53,0,0,1,0,.17A8,8,0,0,1,283,132.93Zm-6-4a9.3,9.3,0,0,0,5.38,2.8,6.65,6.65,0,0,0,6.77-4.13l.3-5.18c.34-5.61.68-11.41.77-17.11h-.07l-2.2.27a.57.57,0,0,1-.45-.14.59.59,0,0,1-.21-.42l-.13-2.44c-.14.24-.28.48-.41.73a.55.55,0,0,1-.57.32l-6.13-.54a.58.58,0,0,1-.53-.47l-.23-1.19a2,2,0,0,1-1.33,1.52,2.44,2.44,0,0,1-1.18,0l-4-.78c-.18,2.53-.76,11.88-.71,12.77.21,3.91,5.15,5.29,5.2,5.3a.59.59,0,0,1,.44.63Z" fill="#231f20"></path><path d="M287,111.37a4.36,4.36,0,0,1,4.8-2.58c2.38.62,2.09,3.35,1.16,5a4.44,4.44,0,0,1-6.08,1.72" fill="#fff"></path><path d="M289.1,116.72a5,5,0,0,1-2.49-.66.58.58,0,0,1-.23-.8.6.6,0,0,1,.81-.23,3.88,3.88,0,0,0,2.94.36,3.93,3.93,0,0,0,2.33-1.84,4.07,4.07,0,0,0,.43-3.21,1.68,1.68,0,0,0-1.22-1,3.76,3.76,0,0,0-4.09,2.2.59.59,0,1,1-1.12-.4,4.92,4.92,0,0,1,5.5-3,2.84,2.84,0,0,1,2,1.65,5.24,5.24,0,0,1-.48,4.25,5.08,5.08,0,0,1-3,2.41A4.85,4.85,0,0,1,289.1,116.72Z" fill="#231f20"></path><path d="M277.89,106.23s-3.5,4-2.91,4.79,2.59.62,2.59.62" fill="#fff"></path><path d="M276.94,112.27a3,3,0,0,1-2.45-.91c-.56-.82.43-2.67,3-5.52a.59.59,0,0,1,.84,0,.6.6,0,0,1,0,.84c-1.49,1.68-2.78,3.56-2.82,4.1a3,3,0,0,0,2,.32.59.59,0,0,1,.14,1.18C277.52,112.24,277.26,112.27,276.94,112.27Zm-1.43-1.49h0Z" fill="#231f20"></path><path d="M277.16,120.77a10.38,10.38,0,0,0,7.13-1.23s-2,5.74-7.55,5.75Z" fill="#231f20"></path><path d="M276.74,125.88a.6.6,0,0,1-.59-.65l.42-4.51a.58.58,0,0,1,.75-.52h0A9.92,9.92,0,0,0,284,119a.57.57,0,0,1,.66.07.58.58,0,0,1,.18.64c0,.06-2.17,6.14-8.11,6.15Zm.95-4.41-.29,3.2a7.42,7.42,0,0,0,5.66-3.92A11.14,11.14,0,0,1,277.69,121.47Z" fill="#231f20"></path><ellipse cx="282.23" cy="106.78" rx="1.32" ry="0.58" transform="translate(174.5 388.64) rotate(-89.81)" fill="#231f20"></ellipse><ellipse cx="274.72" cy="106.22" rx="1.32" ry="0.58" transform="translate(153.23 374.54) rotate(-86.78)" fill="#231f20"></ellipse><path d="M278.18,114.87a8.91,8.91,0,0,1-2.8-.51l-.29-.1a.6.6,0,0,1-.48-.68.59.59,0,0,1,.65-.49,2.85,2.85,0,0,1,.49.14c2,.69,4.58,1.07,6.11-2.08a.6.6,0,0,1,.79-.27.59.59,0,0,1,.27.79A5,5,0,0,1,278.18,114.87Z" fill="#231f20"></path><path d="M262.89,128s-25.84,21.24-25.77,36.81,23.53,19.83,23.53,19.83l6.43-10s-13.5-7.58-12.81-9.75c1-3,12.15-13.55,12.15-13.55Z" fill="#68e1fd"></path><path d="M285.55,164.8h-.09L273.53,163a.59.59,0,0,1-.5-.67l1.76-11.94a.61.61,0,0,1,.67-.5l11.94,1.77a.59.59,0,0,1,.5.67l-1.76,11.94A.6.6,0,0,1,285.55,164.8ZM274.29,162l10.76,1.59,1.59-10.77-10.76-1.59Z" fill="#fff"></path><path d="M286.51,155.78h-.08l-11.58-1.71a.59.59,0,1,1,.17-1.17l11.58,1.71a.58.58,0,0,1,.5.67A.59.59,0,0,1,286.51,155.78Z" fill="#fff"></path><path d="M281,147.91h-.05a.6.6,0,0,1-.52-.41l-6.25-19.36a.6.6,0,0,1,.39-.75.59.59,0,0,1,.74.38l5.81,18,9.21-18.08a.58.58,0,0,1,.79-.26.59.59,0,0,1,.26.79l-9.85,19.37A.59.59,0,0,1,281,147.91Z" fill="#fff"></path><path d="M280.46,151.85h-.06a.6.6,0,0,1-.53-.65l.51-4.69A.59.59,0,0,1,281,146a.6.6,0,0,1,.53.66l-.51,4.68A.59.59,0,0,1,280.46,151.85Z" fill="#fff"></path><path d="M304.34,131.05s26.8,34.68,20.33,43-32.2,9.58-32.2,9.58l-.6-11.28s14.6-.18,15.34-4.25-8.27-21.53-8.27-21.53Z" fill="#68e1fd"></path><path d="M293.71,173.87a.58.58,0,0,1-.57-.45.59.59,0,0,1,.42-.71c5.82-1.48,12.37-3.62,13.05-4.57-.49-1.8-6.07-15.94-8.22-21.35a.59.59,0,0,1,1.1-.43c.32.81,7.93,19.92,8.3,21.61.32,1.48-4.37,3.46-13.94,5.88Zm12.92-5.64h0Z" fill="#231f20"></path><polygon points="277.05 170.03 260.65 191.74 285.06 197.38 298.55 173.25 277.05 170.03" fill="#fff"></polygon><path d="M285.06,198h-.14l-24.41-5.64a.61.61,0,0,1-.42-.38.59.59,0,0,1,.08-.56l16.41-21.71a.6.6,0,0,1,.56-.23l21.5,3.22a.61.61,0,0,1,.45.33.59.59,0,0,1,0,.55l-13.49,24.13A.6.6,0,0,1,285.06,198Zm-23.39-6.6,23.09,5.33,12.86-23-20.31-3Z" fill="#231f20"></path><path d="M267.08,176.51c.55.47,12.49-1.57,9.48,0s-6.72,3.06-6.72,3.06L264,187.33c.06-.07-3.14-3.54-1.93-5.65S267.08,176.51,267.08,176.51Z" fill="#fff"></path><path d="M264,187.93a.64.64,0,0,1-.35-.12c-.12-.09-.21-.16-.23-.28a.47.47,0,0,0-.09-.12c-.73-1-3-3.92-1.77-6s5-5.2,5.18-5.33a.6.6,0,0,1,.63-.07,35.5,35.5,0,0,0,4-.29c5.31-.55,6.08-.52,6.3.23s-.49,1-.77,1.12c-2.66,1.39-5.89,2.72-6.62,3l-5.77,7.64h0a.51.51,0,0,1-.22.17.49.49,0,0,1-.16,0Zm3.26-10.77c-.83.68-3.7,3.11-4.68,4.81-.51.9,0,2.37,1.45,4.39.46-.66,1.23-1.67,2.43-3.27l2.94-3.88a.53.53,0,0,1,.25-.19s2.9-1.17,5.6-2.49c-1.12.06-2.63.22-3.79.34A28.4,28.4,0,0,1,267.23,177.16Zm.23-1.1Z" fill="#231f20"></path><path d="M258.76,169.06h-.05a.59.59,0,0,1-.54-.63l2.4-32.55a.59.59,0,0,1,.64-.54.58.58,0,0,1,.54.63l-2.4,32.54A.59.59,0,0,1,258.76,169.06Z" fill="#231f20"></path></g></svg>