<?xml version="1.0" ?>

<!-- Uploaded to: SVG Repo, www.svgrepo.com, Generator: SVG Repo Mixer Tools -->
<svg width="800px" height="800px" viewBox="0 0 120 120" id="Layer_1" version="1.1" xml:space="preserve" xmlns="http://www.w3.org/2000/svg" xmlns:xlink="http://www.w3.org/1999/xlink">

<style type="text/css">
	.st0{fill:#FFF8E9;}
	.st1{fill:#FFCF02;}
	.st2{fill:#FFCF021f;}
	.st3{fill:#FC889C;}
	.st4{fill:#8f8f8f;}
</style>

<g>

<path class="st0" d="M99.4,98.8H20.6c-3.1,0-5.5-2.5-5.5-5.5V26.8c0-3.1,2.5-5.5,5.5-5.5h78.9c3.1,0,5.5,2.5,5.5,5.5v66.5   C105,96.3,102.5,98.8,99.4,98.8z"/>

<path class="st1" d="M99.4,44.7H20.6c-3.1,0-5.5-2.5-5.5-5.5V26.8c0-3.1,2.5-5.5,5.5-5.5h78.9c3.1,0,5.5,2.5,5.5,5.5v12.4   C105,42.2,102.5,44.7,99.4,44.7z"/>

<g>

<path class="st2" d="M34.2,53.3h-9.9c-0.7,0-1.3,0.6-1.3,1.3v6.2c0,0.7,0.6,1.3,1.3,1.3h9.9c0.7,0,1.3-0.6,1.3-1.3v-6.2    C35.4,53.9,34.9,53.3,34.2,53.3z"/>

<path class="st2" d="M54.7,53.3h-9.9c-0.7,0-1.3,0.6-1.3,1.3v6.2c0,0.7,0.6,1.3,1.3,1.3h9.9c0.7,0,1.3-0.6,1.3-1.3v-6.2    C56,53.9,55.4,53.3,54.7,53.3z"/>

<path class="st2" d="M75.2,53.3h-9.9c-0.7,0-1.3,0.6-1.3,1.3v6.2c0,0.7,0.6,1.3,1.3,1.3h9.9c0.7,0,1.3-0.6,1.3-1.3v-6.2    C76.5,53.9,75.9,53.3,75.2,53.3z"/>

<path class="st2" d="M34.2,67.3h-9.9c-0.7,0-1.3,0.6-1.3,1.3v6.2c0,0.7,0.6,1.3,1.3,1.3h9.9c0.7,0,1.3-0.6,1.3-1.3v-6.2    C35.4,67.9,34.9,67.3,34.2,67.3z"/>

<path class="st2" d="M54.7,67.3h-9.9c-0.7,0-1.3,0.6-1.3,1.3v6.2c0,0.7,0.6,1.3,1.3,1.3h9.9c0.7,0,1.3-0.6,1.3-1.3v-6.2    C56,67.9,55.4,67.3,54.7,67.3z"/>

<path class="st2" d="M75.2,67.3h-9.9c-0.7,0-1.3,0.6-1.3,1.3v6.2c0,0.7,0.6,1.3,1.3,1.3h9.9c0.7,0,1.3-0.6,1.3-1.3v-6.2    C76.5,67.9,75.9,67.3,75.2,67.3z"/>

<path class="st2" d="M34.2,81.4h-9.9c-0.7,0-1.3,0.6-1.3,1.3v6.2c0,0.7,0.6,1.3,1.3,1.3h9.9c0.7,0,1.3-0.6,1.3-1.3v-6.2    C35.4,82,34.9,81.4,34.2,81.4z"/>

<path class="st2" d="M54.7,81.4h-9.9c-0.7,0-1.3,0.6-1.3,1.3v6.2c0,0.7,0.6,1.3,1.3,1.3h9.9c0.7,0,1.3-0.6,1.3-1.3v-6.2    C56,82,55.4,81.4,54.7,81.4z"/>

<path class="st2" d="M75.2,81.4h-9.9c-0.7,0-1.3,0.6-1.3,1.3v6.2c0,0.7,0.6,1.3,1.3,1.3h9.9c0.7,0,1.3-0.6,1.3-1.3v-6.2    C76.5,82,75.9,81.4,75.2,81.4z"/>

</g>

<g>

<path class="st3" d="M95.7,53.3h-9.9c-0.7,0-1.3,0.6-1.3,1.3v6.2c0,0.7,0.6,1.3,1.3,1.3h9.9c0.7,0,1.3-0.6,1.3-1.3v-6.2    C97,53.9,96.4,53.3,95.7,53.3z"/>

<path class="st3" d="M95.7,67.3h-9.9c-0.7,0-1.3,0.6-1.3,1.3v6.2c0,0.7,0.6,1.3,1.3,1.3h9.9c0.7,0,1.3-0.6,1.3-1.3v-6.2    C97,67.9,96.4,67.3,95.7,67.3z"/>

<path class="st3" d="M95.7,81.4h-9.9c-0.7,0-1.3,0.6-1.3,1.3v6.2c0,0.7,0.6,1.3,1.3,1.3h9.9c0.7,0,1.3-0.6,1.3-1.3v-6.2    C97,82,96.4,81.4,95.7,81.4z"/>

</g>

<g>

<path class="st4" d="M27.9,59.9c0.5,0,0.8-0.1,1.2-0.4l7-6.9c0.6-0.6,0.7-1.6,0.1-2.3c-0.6-0.6-1.6-0.7-2.3-0.1L27.9,56l-3.4-3.8    c-0.5-0.7-1.6-0.7-2.3-0.1c-0.7,0.5-0.7,1.6-0.1,2.3l4.5,5.1C27,59.7,27.3,59.9,27.9,59.9z"/>

<path class="st4" d="M57.9,63.8c-0.6-0.6-1.6-0.7-2.3-0.1l-5.9,5.7l-3.4-3.8c-0.5-0.7-1.6-0.7-2.3-0.1s-0.7,1.6-0.1,2.3l4.5,5.1    c0.3,0.3,0.7,0.5,1.2,0.5c0.5,0,0.8-0.1,1.2-0.4l7-6.9C58.4,65.4,58.5,64.4,57.9,63.8z"/>

<path class="st4" d="M35.9,78.7L30,84.4l-3.4-3.8c-0.5-0.7-1.6-0.7-2.3-0.1s-0.7,1.6-0.1,2.3l4.5,5.1c0.3,0.3,0.7,0.5,1.2,0.5    c0.5,0,0.8-0.1,1.2-0.4l7-6.9c0.6-0.6,0.7-1.6,0.1-2.3C37.6,78.2,36.5,78.1,35.9,78.7z"/>

</g>

</g>

</svg>