<?xml version="1.0" encoding="iso-8859-1"?>
<!-- Uploaded to: SVG Repo, www.svgrepo.com, Generator: SVG Repo Mixer Tools -->
<svg version="1.1" id="Layer_1" xmlns="http://www.w3.org/2000/svg" xmlns:xlink="http://www.w3.org/1999/xlink" 
	 viewBox="0 0 508 508" xml:space="preserve">
<circle style="fill:#FFD05B;" cx="254" cy="254" r="254"/>
<path style="fill:#FFFFFF;" d="M292,414.4v-47.6c0-7.2,6-13.2,13.2-13.2h47.6V106.8c0-7.2-6-13.2-13.2-13.2H94.4
	c-7.2,0-13.2,6-13.2,13.2v294.4c0,7.2,6,13.2,13.2,13.2L292,414.4z"/>
<path style="fill:#324A5E;" d="M292,414.4h47.6c7.2,0,13.2-6,13.2-13.2v-47.6h-47.6c-7.2,0-13.2,6-13.2,13.2V414.4z"/>
<g>
	<path style="fill:#E6E9EE;" d="M292,414.4l60.8-60.8h-47.6c-7.2,0-13.2,6-13.2,13.2L292,414.4z"/>
	<rect x="111.6" y="149.6" style="fill:#E6E9EE;" width="210.8" height="7.2"/>
	<rect x="111.6" y="174.4" style="fill:#E6E9EE;" width="210.8" height="7.2"/>
	<rect x="111.6" y="198.8" style="fill:#E6E9EE;" width="210.8" height="7.2"/>
	<rect x="111.6" y="223.2" style="fill:#E6E9EE;" width="210.8" height="7.2"/>
	<rect x="111.6" y="248" style="fill:#E6E9EE;" width="210.8" height="7.2"/>
	<rect x="111.6" y="272.4" style="fill:#E6E9EE;" width="210.8" height="7.2"/>
	<rect x="111.6" y="297.2" style="fill:#E6E9EE;" width="93.2" height="7.2"/>
</g>
<rect x="275.216" y="105.389" transform="matrix(-0.7071 -0.7071 0.7071 -0.7071 322.9517 589.7457)" style="fill:#84DBFF;" width="16.8" height="245.198"/>
<rect x="286.733" y="117.192" transform="matrix(-0.7071 -0.7071 0.7071 -0.7071 334.2663 618.0394)" style="fill:#54C0EB;" width="16.8" height="245.198"/>
<rect x="298.816" y="128.976" transform="matrix(-0.7071 -0.7071 0.7071 -0.7071 346.5608 646.699)" style="fill:#3CA4BC;" width="16.8" height="245.198"/>
<polygon style="fill:#FFD05B;" points="226,344 169.6,365.2 190.8,308.8 "/>
<polygon style="fill:#324A5E;" points="179.6,339.2 169.6,365.2 195.6,355.6 "/>
<rect x="360.03" y="145.106" transform="matrix(-0.7071 -0.7071 0.7071 -0.7071 551.4294 527.8205)" style="fill:#E6E9EE;" width="50" height="9.2"/>
<path style="fill:#FF7058;" d="M424.8,136l-26-26c-2.4-2.4-6.8-2.4-9.2,0l-18.8,18.8L406,164l18.8-18.8
	C427.6,142.8,427.6,138.8,424.8,136z"/>
</svg>