<?xml version="1.0" encoding="iso-8859-1"?>
<!-- Uploaded to: SVG Repo, www.svgrepo.com, Generator: SVG Repo Mixer Tools -->
<svg height="800px" width="800px" version="1.1" id="Layer_1" xmlns="http://www.w3.org/2000/svg" xmlns:xlink="http://www.w3.org/1999/xlink" 
	 viewBox="0 0 512 512" xml:space="preserve">
<path style="fill:#D7DEED;" d="M503.985,127.417v0.12l-376.337,0.611L7.54,128.338l-0.03-15.994
	C7.47,94.727,21.863,80.285,39.478,80.245l432.388-0.811c17.616-0.03,32.049,14.353,32.089,31.969L503.985,127.417z"/>
<g>
	<path style="fill:#EFF2FA;" d="M471.155,95.869c4.424,0,8.007,3.583,8.007,8.007c0,2.212-0.901,4.214-2.342,5.665
		c-1.451,1.441-3.453,2.342-5.665,2.342h-8.007c-4.424,0-8.007-3.583-8.007-8.007c0-2.212,0.901-4.214,2.342-5.665
		c1.451-1.441,3.453-2.342,5.665-2.342H471.155z"/>
	<path style="fill:#EFF2FA;" d="M439.127,95.869c4.424,0,8.007,3.583,8.007,8.007c0,2.212-0.901,4.214-2.342,5.665
		c-1.451,1.441-3.453,2.342-5.665,2.342h-8.007c-4.424,0-8.007-3.583-8.007-8.007c0-2.212,0.901-4.214,2.342-5.665
		c1.451-1.441,3.453-2.342,5.665-2.342H439.127z"/>
	<path style="fill:#EFF2FA;" d="M399.091,95.869c4.424,0,8.007,3.583,8.007,8.007c0,2.212-0.901,4.214-2.342,5.665
		c-1.451,1.441-3.453,2.342-5.665,2.342H206.919c-4.424,0-8.007-3.583-8.007-8.007c0-2.212,0.901-4.214,2.342-5.665
		c1.451-1.441,3.453-2.342,5.665-2.342H399.091z"/>
	<path style="fill:#EFF2FA;" d="M174.89,95.869c4.424,0,8.007,3.583,8.007,8.007c0,2.212-0.901,4.214-2.342,5.665
		c-1.451,1.441-3.453,2.342-5.665,2.342h-8.007c-4.424,0-8.007-3.583-8.007-8.007c0-2.212,0.901-4.214,2.342-5.665
		c1.451-1.441,3.453-2.342,5.665-2.342H174.89z"/>
	<path style="fill:#EFF2FA;" d="M142.861,95.869c4.424,0,8.007,3.583,8.007,8.007c0,2.212-0.901,4.214-2.342,5.665
		c-1.451,1.441-3.453,2.342-5.665,2.342h-8.007c-4.424,0-8.007-3.583-8.007-8.007c0-2.212,0.901-4.214,2.342-5.665
		c1.451-1.441,3.453-2.342,5.665-2.342H142.861z"/>
	<path style="fill:#EFF2FA;" d="M127.648,128.147l0.571,304.253l-88.079,0.16C22.523,432.6,8.08,418.208,8.05,400.592L7.54,128.338
		L127.648,128.147z"/>
</g>
<path d="M511.488,127.408v-0.004c0,0,0-0.002,0-0.004l-0.03-16.01c-0.041-21.758-17.776-39.46-39.61-39.46L39.46,72.742
	c-10.524,0.02-20.435,4.161-27.906,11.659C4.084,91.901-0.02,101.828,0,112.351l0.03,16.009c0,0.002,0,0.003,0,0.003v0.007
	L0.542,400.61c0.041,21.759,17.776,39.461,39.534,39.461c0.005,0,0.07,0,0.075,0l432.388-0.814
	c21.8-0.041,39.501-17.81,39.461-39.608L511.488,127.408z M40.123,425.058l-0.047,7.507v-7.507
	c-13.495,0-24.496-10.981-24.521-24.476l-0.497-264.737l105.094-0.197l0.543,289.259L40.123,425.058z M472.51,424.245
	l-336.802,0.634l-0.543-289.259l312.78-0.588c4.146-0.008,7.501-3.375,7.493-7.521c-0.008-4.142-3.367-7.493-7.507-7.493
	c-0.005,0-0.01,0-0.015,0l-432.887,0.814l-0.016-8.508c-0.012-6.515,2.536-12.668,7.177-17.327c4.64-4.658,10.784-7.23,17.299-7.242
	l432.435-0.812c13.495,0,24.496,10.98,24.521,24.475l0.016,8.508l-16.515,0.032c-4.146,0.008-7.501,3.375-7.493,7.522
	c0.008,4.141,3.367,7.492,7.507,7.492c0.005,0,0.01,0,0.015,0l16.515-0.032l0.497,264.737
	C497.012,413.198,486.032,424.219,472.51,424.245z"/>
<path d="M39.519,96.758c-1.972,0-3.914,0.812-5.305,2.202c-1.401,1.4-2.202,3.333-2.202,5.305c0,1.982,0.801,3.914,2.202,5.316
	c1.391,1.391,3.333,2.191,5.305,2.191c1.982,0,3.914-0.801,5.315-2.191c1.391-1.401,2.192-3.333,2.192-5.316
	c0-1.972-0.801-3.904-2.192-5.305C43.432,97.559,41.5,96.758,39.519,96.758z"/>
<path d="M63.54,96.718c-1.972,0-3.914,0.801-5.305,2.202c-1.401,1.391-2.202,3.323-2.202,5.305c0,1.972,0.801,3.914,2.202,5.305
	c1.401,1.401,3.333,2.202,5.305,2.202c1.972,0,3.903-0.801,5.315-2.202c1.391-1.391,2.192-3.333,2.192-5.305
	c0-1.981-0.801-3.914-2.192-5.305C67.454,97.519,65.512,96.718,63.54,96.718z"/>
<path d="M87.562,96.678c-1.972,0-3.914,0.801-5.305,2.192c-1.401,1.4-2.202,3.333-2.202,5.315c0,1.972,0.801,3.904,2.202,5.305
	c1.401,1.401,3.333,2.202,5.305,2.202c1.972,0,3.914-0.801,5.305-2.202c1.401-1.4,2.202-3.333,2.202-5.305
	c0-1.981-0.801-3.914-2.202-5.315C91.475,97.479,89.543,96.678,87.562,96.678z"/>
<path d="M39.625,167.827c0.005,0,0.01,0,0.015,0l56.05-0.104c4.146-0.008,7.501-3.375,7.493-7.521
	c-0.008-4.142-3.367-7.493-7.507-7.493c-0.005,0-0.01,0-0.015,0l-56.05,0.104c-4.146,0.008-7.501,3.375-7.493,7.521
	C32.127,164.475,35.486,167.827,39.625,167.827z"/>
<path d="M39.686,199.856c0.005,0,0.01,0,0.015,0l56.05-0.105c4.146-0.008,7.501-3.375,7.493-7.521
	c-0.008-4.142-3.367-7.493-7.507-7.493c-0.005,0-0.01,0-0.015,0l-56.05,0.105c-4.146,0.008-7.501,3.375-7.493,7.521
	C32.187,196.504,35.547,199.856,39.686,199.856z"/>
<path d="M95.797,216.766c-0.005,0-0.01,0-0.015,0l-56.05,0.105c-4.146,0.008-7.501,3.375-7.493,7.521
	c0.008,4.142,3.367,7.493,7.507,7.493c0.005,0,0.01,0,0.015,0l56.05-0.105c4.146-0.008,7.501-3.375,7.493-7.521
	C103.296,220.117,99.936,216.766,95.797,216.766z"/>
<path d="M39.806,263.913c0.005,0,0.01,0,0.015,0l32.029-0.06c4.146-0.008,7.501-3.375,7.493-7.521
	c-0.008-4.142-3.367-7.493-7.507-7.493c-0.005,0-0.01,0-0.015,0l-32.029,0.06c-4.146,0.008-7.501,3.375-7.493,7.521
	C32.307,260.561,35.666,263.913,39.806,263.913z"/>
<path d="M71.896,280.869c-0.005,0-0.01,0-0.015,0l-32.029,0.06c-4.146,0.008-7.501,3.375-7.493,7.521
	c0.008,4.142,3.367,7.493,7.507,7.493c0.005,0,0.01,0,0.015,0l32.029-0.06c4.146-0.008,7.501-3.375,7.493-7.521
	C79.394,284.22,76.035,280.869,71.896,280.869z"/>
<path d="M47.934,312.942c-0.005,0-0.01,0-0.014,0l-8.007,0.015c-4.146,0.008-7.501,3.375-7.493,7.521
	c0.008,4.142,3.367,7.493,7.507,7.493c0.005,0,0.01,0,0.014,0l8.007-0.015c4.146-0.008,7.501-3.375,7.493-7.521
	C55.433,316.294,52.074,312.942,47.934,312.942z"/>
<path d="M244.726,308.707c-7.642,7.67-17.813,11.907-28.641,11.926c-0.026,0-0.052,0-0.078,0c-10.798,0-20.956-4.195-28.608-11.82
	c-7.671-7.642-11.907-17.813-11.927-28.641c-0.021-10.827,4.177-21.015,11.82-28.686c7.642-7.67,17.813-11.907,28.641-11.927
	c0.026,0,0.052,0,0.079,0c10.798,0,20.955,4.196,28.607,11.82c2.937,2.925,7.69,2.916,10.616-0.021
	c2.927-2.937,2.918-7.69-0.02-10.616c-21.7-21.618-56.942-21.552-78.558,0.148c-10.472,10.511-16.225,24.472-16.197,39.309
	s5.832,28.777,16.344,39.249c10.487,10.447,24.405,16.197,39.203,16.197c0.035,0,0.071,0,0.106,0
	c14.838-0.027,28.777-5.831,39.249-16.344c2.927-2.937,2.918-7.69-0.02-10.615C252.405,305.762,247.652,305.77,244.726,308.707z"/>
<path d="M327.307,300.421c4.733-1.971,9.077-4.874,12.805-8.615c7.453-7.482,11.547-17.418,11.527-27.977
	c-0.041-21.777-17.767-39.461-39.534-39.461c-0.024,0-0.052,0-0.076,0c0,0-30.54,0.058-32.006,0.06
	c-0.008,0.001-0.017,0.001-0.025,0c-0.01,0-0.021-0.001-0.025,0c-4.134,0.022-7.513,3.385-7.505,7.523
	c0,0.249,0.014,0.5,0.041,0.751l0.179,95.333c0.008,4.142,3.367,7.493,7.507,7.493c0.005,0,0.01,0,0.015,0
	c4.146-0.008,7.501-3.375,7.493-7.521l-0.167-88.579l24.522-0.046c0.016,0,0.031,0,0.047,0c13.5,0,24.496,10.97,24.521,24.475
	c0.012,6.551-2.526,12.712-7.149,17.354c-4.623,4.64-10.777,7.201-17.327,7.214c-3.036,0.006-5.77,1.84-6.926,4.647
	c-1.156,2.807-0.508,6.034,1.642,8.178l32.089,31.969c2.937,2.925,7.69,2.917,10.615-0.021c2.927-2.937,2.918-7.69-0.02-10.616
	L327.307,300.421z"/>
<path d="M458.042,224.332c-3.31-0.853-6.783,0.645-8.439,3.637l-33.361,60.316l-33.587-60.19c-1.667-2.988-5.143-4.464-8.452-3.606
	c-3.31,0.864-5.616,3.857-5.61,7.278l0.181,96.086c0.008,4.142,3.367,7.493,7.507,7.493c0.005,0,0.01,0,0.015,0
	c4.146-0.008,7.501-3.375,7.493-7.521l-0.126-67.117l26.054,46.691c1.326,2.377,3.834,3.849,6.555,3.849c0.005,0,0.009,0,0.014,0
	c2.726-0.005,5.235-1.487,6.555-3.873l25.879-46.789l0.126,67.116c0.008,4.142,3.367,7.493,7.507,7.493c0.005,0,0.01,0,0.015,0
	c4.146-0.008,7.501-3.375,7.493-7.521l-0.18-96.086C463.673,228.167,461.355,225.183,458.042,224.332z"/>
</svg>