


<!-- The Only "F" | This "ellipse" could be remove to remove BG -->
<!-- <svg xmlns:dc="http://purl.org/dc/elements/1.1/" xmlns:cc="http://creativecommons.org/ns#" xmlns:rdf="http://www.w3.org/1999/02/22-rdf-syntax-ns#" xmlns:svg="http://www.w3.org/2000/svg" xmlns="http://www.w3.org/2000/svg" id="svg294515" viewBox="0 0 200 200" height="200px" width="200px" version="1.1">
  <metadata id="metadata294521">
    <rdf:RDF>
      <cc:Work rdf:about="">
        <dc:format>image/svg+xml</dc:format>
        <dc:type rdf:resource="http://purl.org/dc/dcmitype/StillImage"/>
      </cc:Work>
    </rdf:RDF>
  </metadata>
  <defs id="defs294519"/>
  <ellipse data-v-aff17410="" cx="20" cy="80" rx="65" ry="65" transform="rotate(-78.56 63.06 35.181)" fill="#5463f9"/>
  <g id="monogram" style="font-style:normal;font-weight:800;font-size:120px;line-height:1;font-family:'Montserrat ExtraBold Alt1';font-variant-ligatures:none;text-align:center;dominant-baseline:middle;text-anchor:middle;fill:#fcfcfc" aria-label="F">
    <path id="path294523" style="font-style:normal;font-weight:800;font-size:120px;line-height:1;font-family:'Montserrat ExtraBold Alt1';font-variant-ligatures:none;text-align:center;dominant-baseline:middle;text-anchor:middle;fill:#fcfcfc" d="m 69.845313,132.52 h 23.759999 v -28.8 H 133.32531 V 85.36 H 69.845313 Z m 0,-84 V 66.88 H 133.32531 V 48.52 Z"/>
  </g>
</svg> -->


<svg xmlns:dc="http://purl.org/dc/elements/1.1/" xmlns:cc="http://creativecommons.org/ns#" xmlns:rdf="http://www.w3.org/1999/02/22-rdf-syntax-ns#" xmlns:svg="http://www.w3.org/2000/svg" xmlns="http://www.w3.org/2000/svg" xmlns:xlink="http://www.w3.org/1999/xlink" id="svg381802" viewBox="0 0 1024 768" height="768px" width="1024px" version="1.1">
  <g id="logo-center" transform="translate(-1.1368683772161603e-13 0)">
    <g id="slogan" style="font-style:normal;font-weight:500;font-size:32px;line-height:1;font-family:Roboto;font-variant-ligatures:none;text-align:center;text-anchor:middle" transform="translate(0 0)">
      <path id="path381810" style="font-style:normal;font-weight:500;font-size:32px;line-height:1;font-family:Roboto;font-variant-ligatures:none;text-align:center;text-anchor:middle" d="m 286.46875,-5.625 3.5,-17.125 h 3.92187 l -5.25,22.75 h -3.78125 L 280.53125,-16.609375 276.10937,0 h -3.79687 l -5.25,-22.75 h 3.92187 l 3.53125,17.09375 4.34375,-17.09375 h 3.3125 z" stroke-width="0" stroke-linejoin="miter" stroke-miterlimit="2" fill="#7996ed" stroke="#7996ed" transform="translate(0 346.68090624999996) translate(255.24218749999994 56.9375) scale(0.75) translate(-267.0625 22.75)"/>
      <path id="path381812" style="font-style:normal;font-weight:500;font-size:32px;line-height:1;font-family:Roboto;font-variant-ligatures:none;text-align:center;text-anchor:middle" d="m 300.1875,-15.0625 q 1.85937,-2.15625 4.70312,-2.15625 5.40625,0 5.48438,6.171875 V 0 h -3.79688 v -10.90625 q 0,-1.75 -0.76562,-2.46875 -0.75,-0.734375 -2.21875,-0.734375 -2.28125,0 -3.40625,2.03125 V 0 h -3.79688 v -24 h 3.79688 z" stroke-width="0" stroke-linejoin="miter" stroke-miterlimit="2" fill="#7996ed" stroke="#7996ed" transform="translate(0 346.68090624999996) translate(282.4882774999999 56) scale(0.75) translate(-296.39062 24)"/>
      <path id="path381814" style="font-style:normal;font-weight:500;font-size:32px;line-height:1;font-family:Roboto;font-variant-ligatures:none;text-align:center;text-anchor:middle" d="m 321.64062,0.3125 q -3.60937,0 -5.85937,-2.265625 -2.23438,-2.28125 -2.23438,-6.0625 v -0.46875 q 0,-2.53125 0.96875,-4.515625 0.98438,-2 2.75,-3.109375 1.76563,-1.109375 3.9375,-1.109375 3.45313,0 5.32813,2.203125 1.89062,2.203125 1.89062,6.234375 V -7.25 H 317.375 q 0.17187,2.09375 1.39062,3.3125 1.23438,1.21875 3.09375,1.21875 2.60938,0 4.25,-2.109375 l 2.04688,1.953125 q -1.01563,1.515625 -2.71875,2.359375 Q 323.75,0.3125 321.64062,0.3125 Z m -0.45312,-14.484375 q -1.5625,0 -2.53125,1.09375 -0.95313,1.09375 -1.21875,3.046875 h 7.23437 v -0.28125 q -0.125,-1.90625 -1.01562,-2.875 -0.89063,-0.984375 -2.46875,-0.984375 z" stroke-width="0" stroke-linejoin="miter" stroke-miterlimit="2" fill="#7996ed" stroke="#7996ed" transform="translate(0 346.68090624999996) translate(300.605465 61.0859375) scale(0.75) translate(-313.54687 17.21875)"/>
      <path id="path381816" style="font-style:normal;font-weight:500;font-size:32px;line-height:1;font-family:Roboto;font-variant-ligatures:none;text-align:center;text-anchor:middle" d="m 340.23437,-13.4375 q -0.75,-0.125 -1.54687,-0.125 -2.60938,0 -3.51563,2 V 0 H 331.375 V -16.90625 H 335 l 0.0937,1.890625 q 1.375,-2.203125 3.8125,-2.203125 0.8125,0 1.34375,0.21875 z" stroke-width="0" stroke-linejoin="miter" stroke-miterlimit="2" fill="#7996ed" stroke="#7996ed" transform="translate(0 346.68090624999996) translate(319.2265625 61.0859375) scale(0.75) translate(-331.375 17.21875)"/>
      <path id="path381818" style="font-style:normal;font-weight:500;font-size:32px;line-height:1;font-family:Roboto;font-variant-ligatures:none;text-align:center;text-anchor:middle" d="m 349.76562,0.3125 q -3.60937,0 -5.85937,-2.265625 -2.23438,-2.28125 -2.23438,-6.0625 v -0.46875 q 0,-2.53125 0.96875,-4.515625 0.98438,-2 2.75,-3.109375 1.76563,-1.109375 3.9375,-1.109375 3.45313,0 5.32813,2.203125 1.89062,2.203125 1.89062,6.234375 V -7.25 H 345.5 q 0.17187,2.09375 1.39062,3.3125 1.23438,1.21875 3.09375,1.21875 2.60938,0 4.25,-2.109375 l 2.04688,1.953125 q -1.01563,1.515625 -2.71875,2.359375 Q 351.875,0.3125 349.76562,0.3125 Z m -0.45312,-14.484375 q -1.5625,0 -2.53125,1.09375 -0.95313,1.09375 -1.21875,3.046875 h 7.23437 v -0.28125 q -0.125,-1.90625 -1.01562,-2.875 -0.89063,-0.984375 -2.46875,-0.984375 z" stroke-width="0" stroke-linejoin="miter" stroke-miterlimit="2" fill="#7996ed" stroke="#7996ed" transform="translate(0 346.68090624999996) translate(332.199215 61.0859375) scale(0.75) translate(-341.67187 17.21875)"/>
      <path id="path381820" style="font-style:normal;font-weight:500;font-size:32px;line-height:1;font-family:Roboto;font-variant-ligatures:none;text-align:center;text-anchor:middle" d="M 371.54687,0 H 367.75 v -16.90625 h 3.79687 z m -4.03125,-21.296875 q 0,-0.875 0.54688,-1.453125 0.5625,-0.578125 1.59375,-0.578125 1.03125,0 1.59375,0.578125 0.5625,0.578125 0.5625,1.453125 0,0.859375 -0.5625,1.4375 -0.5625,0.5625 -1.59375,0.5625 -1.03125,0 -1.59375,-0.5625 -0.54688,-0.578125 -0.54688,-1.4375 z" stroke-width="0" stroke-linejoin="miter" stroke-miterlimit="2" fill="#7996ed" stroke="#7996ed" transform="translate(0 346.68090624999996) translate(356.8320275 56.50390625) scale(0.75) translate(-367.51562 23.328125)"/>
      <path id="path381822" style="font-style:normal;font-weight:500;font-size:32px;line-height:1;font-family:Roboto;font-variant-ligatures:none;text-align:center;text-anchor:middle" d="m 379.26562,-16.90625 0.10938,1.765625 q 1.78125,-2.078125 4.875,-2.078125 3.39062,0 4.64062,2.59375 1.84375,-2.59375 5.1875,-2.59375 2.79688,0 4.15625,1.546875 1.375,1.546875 1.40625,4.5625 V 0 h -3.79687 v -11 q 0,-1.609375 -0.70313,-2.359375 -0.70312,-0.75 -2.32812,-0.75 -1.29688,0 -2.125,0.703125 -0.8125,0.6875 -1.14063,1.8125 L 389.5625,0 h -3.79688 v -11.125 q -0.0781,-2.984375 -3.04687,-2.984375 -2.28125,0 -3.23438,1.859375 V 0 h -3.79687 v -16.90625 z" stroke-width="0" stroke-linejoin="miter" stroke-miterlimit="2" fill="#7996ed" stroke="#7996ed" transform="translate(0 346.68090624999996) translate(368.2109375 61.0859375) scale(0.75) translate(-375.6875 17.21875)"/>
      <path id="path381824" style="font-style:normal;font-weight:500;font-size:32px;line-height:1;font-family:Roboto;font-variant-ligatures:none;text-align:center;text-anchor:middle" d="m 413.67187,0 q -0.25,-0.484375 -0.4375,-1.578125 -1.8125,1.890625 -4.4375,1.890625 -2.54687,0 -4.15625,-1.453125 -1.60937,-1.453125 -1.60937,-3.59375 0,-2.703125 2,-4.140625 2.01562,-1.453125 5.75,-1.453125 h 2.32812 V -11.4375 q 0,-1.3125 -0.73437,-2.09375 -0.73438,-0.796875 -2.23438,-0.796875 -1.29687,0 -2.125,0.65625 -0.82812,0.640625 -0.82812,1.640625 h -3.79688 q 0,-1.390625 0.92188,-2.59375 0.92187,-1.21875 2.5,-1.90625 1.59375,-0.6875 3.54687,-0.6875 2.96875,0 4.73438,1.5 1.76562,1.484375 1.8125,4.1875 v 7.625 q 0,2.28125 0.64062,3.640625 V 0 Z M 409.5,-2.734375 q 1.125,0 2.10937,-0.546875 1,-0.546875 1.5,-1.46875 v -3.1875 h -2.04687 q -2.10938,0 -3.17188,0.734375 -1.0625,0.734375 -1.0625,2.078125 0,1.09375 0.71875,1.75 0.73438,0.640625 1.95313,0.640625 z" stroke-width="0" stroke-linejoin="miter" stroke-miterlimit="2" fill="#7996ed" stroke="#7996ed" transform="translate(0 346.68090624999996) translate(393.96875 61.0859375) scale(0.75) translate(-403.03125 17.21875)"/>
      <path id="path381826" style="font-style:normal;font-weight:500;font-size:32px;line-height:1;font-family:Roboto;font-variant-ligatures:none;text-align:center;text-anchor:middle" d="m 420.21875,-8.578125 q 0,-3.9375 1.84375,-6.28125 1.85937,-2.359375 4.92187,-2.359375 2.89063,0 4.54688,2.015625 l 0.17187,-1.703125 h 3.42188 v 16.390625 q 0,3.328125 -2.07813,5.25 -2.0625,1.921875 -5.57812,1.921875 -1.85938,0 -3.64063,-0.78125 -1.76562,-0.765625 -2.6875,-2.015625 l 1.79688,-2.28125 q 1.75,2.078125 4.3125,2.078125 1.89062,0 2.98437,-1.03125 1.09375,-1.015625 1.09375,-3 v -1.140625 q -1.64062,1.828125 -4.375,1.828125 -2.96875,0 -4.85937,-2.359375 -1.875,-2.359375 -1.875,-6.53125 z M 424,-8.25 q 0,2.546875 1.03125,4.015625 1.04687,1.453125 2.89062,1.453125 2.29688,0 3.40625,-1.96875 v -7.4375 q -1.07812,-1.921875 -3.375,-1.921875 -1.875,0 -2.92187,1.484375 Q 424,-11.140625 424,-8.25 Z" stroke-width="0" stroke-linejoin="miter" stroke-miterlimit="2" fill="#7996ed" stroke="#7996ed" transform="translate(0 346.68090624999996) translate(412.109375 61.0859375) scale(0.75) translate(-420.21875 17.21875)"/>
      <path id="path381828" style="font-style:normal;font-weight:500;font-size:32px;line-height:1;font-family:Roboto;font-variant-ligatures:none;text-align:center;text-anchor:middle" d="M 443.04687,0 H 439.25 v -16.90625 h 3.79687 z m -4.03125,-21.296875 q 0,-0.875 0.54688,-1.453125 0.5625,-0.578125 1.59375,-0.578125 1.03125,0 1.59375,0.578125 0.5625,0.578125 0.5625,1.453125 0,0.859375 -0.5625,1.4375 -0.5625,0.5625 -1.59375,0.5625 -1.03125,0 -1.59375,-0.5625 -0.54688,-0.578125 -0.54688,-1.4375 z" stroke-width="0" stroke-linejoin="miter" stroke-miterlimit="2" fill="#7996ed" stroke="#7996ed" transform="translate(0 346.68090624999996) translate(431.4570275 56.50390625) scale(0.75) translate(-439.01562 23.328125)"/>
      <path id="path381830" style="font-style:normal;font-weight:500;font-size:32px;line-height:1;font-family:Roboto;font-variant-ligatures:none;text-align:center;text-anchor:middle" d="m 450.71875,-16.90625 0.10937,1.953125 q 1.875,-2.265625 4.92188,-2.265625 5.28125,0 5.375,6.046875 V 0 h -3.79688 v -10.953125 q 0,-1.609375 -0.70312,-2.375 -0.6875,-0.78125 -2.26563,-0.78125 -2.29687,0 -3.42187,2.078125 V 0 h -3.79688 v -16.90625 z" stroke-width="0" stroke-linejoin="miter" stroke-miterlimit="2" fill="#7996ed" stroke="#7996ed" transform="translate(0 346.68090624999996) translate(442.8007775 61.0859375) scale(0.75) translate(-447.14062 17.21875)"/>
      <path id="path381832" style="font-style:normal;font-weight:500;font-size:32px;line-height:1;font-family:Roboto;font-variant-ligatures:none;text-align:center;text-anchor:middle" d="m 475.10937,0 q -0.25,-0.484375 -0.4375,-1.578125 -1.8125,1.890625 -4.4375,1.890625 -2.54687,0 -4.15625,-1.453125 -1.60937,-1.453125 -1.60937,-3.59375 0,-2.703125 2,-4.140625 2.01562,-1.453125 5.75,-1.453125 h 2.32812 V -11.4375 q 0,-1.3125 -0.73437,-2.09375 -0.73438,-0.796875 -2.23438,-0.796875 -1.29687,0 -2.125,0.65625 -0.82812,0.640625 -0.82812,1.640625 h -3.79688 q 0,-1.390625 0.92188,-2.59375 0.92187,-1.21875 2.5,-1.90625 1.59375,-0.6875 3.54687,-0.6875 2.96875,0 4.73438,1.5 1.76562,1.484375 1.8125,4.1875 v 7.625 q 0,2.28125 0.64062,3.640625 V 0 Z m -4.17187,-2.734375 q 1.125,0 2.10937,-0.546875 1,-0.546875 1.5,-1.46875 V -7.9375 H 472.5 q -2.10938,0 -3.17188,0.734375 -1.0625,0.734375 -1.0625,2.078125 0,1.09375 0.71875,1.75 0.73438,0.640625 1.95313,0.640625 z" stroke-width="0" stroke-linejoin="miter" stroke-miterlimit="2" fill="#7996ed" stroke="#7996ed" transform="translate(0 346.68090624999996) translate(461.046875 61.0859375) scale(0.75) translate(-464.46875 17.21875)"/>
      <path id="path381834" style="font-style:normal;font-weight:500;font-size:32px;line-height:1;font-family:Roboto;font-variant-ligatures:none;text-align:center;text-anchor:middle" d="m 487.07812,-21.015625 v 4.109375 h 2.98438 v 2.8125 h -2.98438 v 9.4375 q 0,0.96875 0.375,1.40625 0.39063,0.421875 1.375,0.421875 0.65625,0 1.32813,-0.15625 v 2.9375 q -1.29688,0.359375 -2.5,0.359375 -4.375,0 -4.375,-4.828125 V -14.09375 H 480.5 v -2.8125 h 2.78125 v -4.109375 z" stroke-width="0" stroke-linejoin="miter" stroke-miterlimit="2" fill="#7996ed" stroke="#7996ed" transform="translate(0 346.68090624999996) translate(478.3203125 58.23828125) scale(0.75) translate(-480.5 21.015625)"/>
      <path id="path381836" style="font-style:normal;font-weight:500;font-size:32px;line-height:1;font-family:Roboto;font-variant-ligatures:none;text-align:center;text-anchor:middle" d="m 496.98437,0 h -3.79687 v -16.90625 h 3.79687 z m -4.03125,-21.296875 q 0,-0.875 0.54688,-1.453125 0.5625,-0.578125 1.59375,-0.578125 1.03125,0 1.59375,0.578125 0.5625,0.578125 0.5625,1.453125 0,0.859375 -0.5625,1.4375 -0.5625,0.5625 -1.59375,0.5625 -1.03125,0 -1.59375,-0.5625 -0.54688,-0.578125 -0.54688,-1.4375 z" stroke-width="0" stroke-linejoin="miter" stroke-miterlimit="2" fill="#7996ed" stroke="#7996ed" transform="translate(0 346.68090624999996) translate(492.9101525 56.50390625) scale(0.75) translate(-492.95312 23.328125)"/>
      <path id="path381838" style="font-style:normal;font-weight:500;font-size:32px;line-height:1;font-family:Roboto;font-variant-ligatures:none;text-align:center;text-anchor:middle" d="m 500.42187,-8.609375 q 0,-2.484375 0.98438,-4.46875 0.98437,-2 2.76562,-3.0625 1.78125,-1.078125 4.09375,-1.078125 3.42188,0 5.54688,2.203125 2.14062,2.203125 2.3125,5.84375 l 0.0156,0.890625 q 0,2.5 -0.96875,4.46875 -0.95312,1.96875 -2.75,3.046875 -1.78125,1.078125 -4.125,1.078125 -3.57812,0 -5.73437,-2.375 -2.14063,-2.390625 -2.14063,-6.359375 z m 3.79688,0.328125 q 0,2.609375 1.07812,4.09375 1.07813,1.46875 3,1.46875 1.92188,0 2.98438,-1.5 1.07812,-1.5 1.07812,-4.390625 0,-2.5625 -1.10937,-4.0625 -1.09375,-1.5 -2.98438,-1.5 -1.85937,0 -2.95312,1.484375 -1.09375,1.46875 -1.09375,4.40625 z" stroke-width="0" stroke-linejoin="miter" stroke-miterlimit="2" fill="#7996ed" stroke="#7996ed" transform="translate(0 346.68090624999996) translate(503.7617 61.0859375) scale(0.75) translate(-500.42185 17.21875)"/>
      <path id="path381840" style="font-style:normal;font-weight:500;font-size:32px;line-height:1;font-family:Roboto;font-variant-ligatures:none;text-align:center;text-anchor:middle" d="m 522.90625,-16.90625 0.10937,1.953125 q 1.875,-2.265625 4.92188,-2.265625 5.28125,0 5.375,6.046875 V 0 h -3.79688 v -10.953125 q 0,-1.609375 -0.70312,-2.375 -0.6875,-0.78125 -2.26563,-0.78125 -2.29687,0 -3.42187,2.078125 V 0 h -3.79688 v -16.90625 z" stroke-width="0" stroke-linejoin="miter" stroke-miterlimit="2" fill="#7996ed" stroke="#7996ed" transform="translate(0 346.68090624999996) translate(523.1914025000001 61.0859375) scale(0.75) translate(-519.32812 17.21875)"/>
      <path id="path381842" style="font-style:normal;font-weight:500;font-size:32px;line-height:1;font-family:Roboto;font-variant-ligatures:none;text-align:center;text-anchor:middle" d="m 548.76562,-16.90625 0.10938,1.765625 q 1.78125,-2.078125 4.875,-2.078125 3.39062,0 4.64062,2.59375 1.84375,-2.59375 5.1875,-2.59375 2.79688,0 4.15625,1.546875 1.375,1.546875 1.40625,4.5625 V 0 h -3.79687 v -11 q 0,-1.609375 -0.70313,-2.359375 -0.70312,-0.75 -2.32812,-0.75 -1.29688,0 -2.125,0.703125 -0.8125,0.6875 -1.14063,1.8125 L 559.0625,0 h -3.79688 v -11.125 q -0.0781,-2.984375 -3.04687,-2.984375 -2.28125,0 -3.23438,1.859375 V 0 h -3.79687 v -16.90625 z" stroke-width="0" stroke-linejoin="miter" stroke-miterlimit="2" fill="#7996ed" stroke="#7996ed" transform="translate(0 346.68090624999996) translate(547.8359375000001 61.0859375) scale(0.75) translate(-545.1875 17.21875)"/>
      <path id="path381844" style="font-style:normal;font-weight:500;font-size:32px;line-height:1;font-family:Roboto;font-variant-ligatures:none;text-align:center;text-anchor:middle" d="m 580.51562,0.3125 q -3.60937,0 -5.85937,-2.265625 -2.23438,-2.28125 -2.23438,-6.0625 v -0.46875 q 0,-2.53125 0.96875,-4.515625 0.98438,-2 2.75,-3.109375 1.76563,-1.109375 3.9375,-1.109375 3.45313,0 5.32813,2.203125 1.89062,2.203125 1.89062,6.234375 V -7.25 H 576.25 q 0.17187,2.09375 1.39062,3.3125 1.23438,1.21875 3.09375,1.21875 2.60938,0 4.25,-2.109375 l 2.04688,1.953125 q -1.01563,1.515625 -2.71875,2.359375 Q 582.625,0.3125 580.51562,0.3125 Z m -0.45312,-14.484375 q -1.5625,0 -2.53125,1.09375 -0.95313,1.09375 -1.21875,3.046875 h 7.23437 v -0.28125 q -0.125,-1.90625 -1.01562,-2.875 -0.89063,-0.984375 -2.46875,-0.984375 z" stroke-width="0" stroke-linejoin="miter" stroke-miterlimit="2" fill="#7996ed" stroke="#7996ed" transform="translate(0 346.68090624999996) translate(573.5117150000001 61.0859375) scale(0.75) translate(-572.42187 17.21875)"/>
      <path id="path381846" style="font-style:normal;font-weight:500;font-size:32px;line-height:1;font-family:Roboto;font-variant-ligatures:none;text-align:center;text-anchor:middle" d="m 597.70312,0.3125 q -3.60937,0 -5.85937,-2.265625 -2.23438,-2.28125 -2.23438,-6.0625 v -0.46875 q 0,-2.53125 0.96875,-4.515625 0.98438,-2 2.75,-3.109375 1.76563,-1.109375 3.9375,-1.109375 3.45313,0 5.32813,2.203125 1.89062,2.203125 1.89062,6.234375 V -7.25 H 593.4375 q 0.17187,2.09375 1.39062,3.3125 1.23438,1.21875 3.09375,1.21875 2.60938,0 4.25,-2.109375 L 604.21875,-2.875 Q 603.20312,-1.359375 601.5,-0.515625 599.8125,0.3125 597.70312,0.3125 Z M 597.25,-14.171875 q -1.5625,0 -2.53125,1.09375 -0.95313,1.09375 -1.21875,3.046875 h 7.23437 v -0.28125 q -0.125,-1.90625 -1.01562,-2.875 -0.89063,-0.984375 -2.46875,-0.984375 z" stroke-width="0" stroke-linejoin="miter" stroke-miterlimit="2" fill="#7996ed" stroke="#7996ed" transform="translate(0 346.68090624999996) translate(591.6523400000001 61.0859375) scale(0.75) translate(-589.60937 17.21875)"/>
      <path id="path381848" style="font-style:normal;font-weight:500;font-size:32px;line-height:1;font-family:Roboto;font-variant-ligatures:none;text-align:center;text-anchor:middle" d="m 612.20312,-21.015625 v 4.109375 h 2.98438 v 2.8125 h -2.98438 v 9.4375 q 0,0.96875 0.375,1.40625 0.39063,0.421875 1.375,0.421875 0.65625,0 1.32813,-0.15625 v 2.9375 q -1.29688,0.359375 -2.5,0.359375 -4.375,0 -4.375,-4.828125 V -14.09375 H 605.625 v -2.8125 h 2.78125 v -4.109375 z" stroke-width="0" stroke-linejoin="miter" stroke-miterlimit="2" fill="#7996ed" stroke="#7996ed" transform="translate(0 346.68090624999996) translate(608.9140625000001 58.23828125) scale(0.75) translate(-605.625 21.015625)"/>
      <path id="path381850" style="font-style:normal;font-weight:500;font-size:32px;line-height:1;font-family:Roboto;font-variant-ligatures:none;text-align:center;text-anchor:middle" d="m 627.54687,-4.59375 q 0,-1.015625 -0.84375,-1.546875 -0.82812,-0.53125 -2.76562,-0.9375 -1.9375,-0.40625 -3.23438,-1.03125 -2.84375,-1.375 -2.84375,-3.984375 0,-2.1875 1.84375,-3.65625 1.84375,-1.46875 4.6875,-1.46875 3.03125,0 4.89063,1.5 1.875,1.5 1.875,3.890625 h -3.79688 q 0,-1.09375 -0.8125,-1.8125 -0.8125,-0.734375 -2.15625,-0.734375 -1.25,0 -2.04687,0.578125 -0.78125,0.578125 -0.78125,1.546875 0,0.875 0.73437,1.359375 0.73438,0.484375 2.96875,0.984375 2.23438,0.484375 3.5,1.171875 1.28125,0.671875 1.89063,1.625 0.625,0.953125 0.625,2.3125 0,2.28125 -1.89063,3.703125 Q 627.5,0.3125 624.4375,0.3125 q -2.07813,0 -3.70313,-0.75 -1.625,-0.75 -2.53125,-2.0625 -0.90625,-1.3125 -0.90625,-2.828125 h 3.6875 Q 621.0625,-3.984375 622,-3.25 q 0.9375,0.71875 2.48437,0.71875 1.5,0 2.28125,-0.5625 0.78125,-0.578125 0.78125,-1.5 z" stroke-width="0" stroke-linejoin="miter" stroke-miterlimit="2" fill="#7996ed" stroke="#7996ed" transform="translate(0 346.68090624999996) translate(622.9179650000001 61.0859375) scale(0.75) translate(-617.29687 17.21875)"/>
      <path id="path381852" style="font-style:normal;font-weight:500;font-size:32px;line-height:1;font-family:Roboto;font-variant-ligatures:none;text-align:center;text-anchor:middle" d="m 649.51562,-2.71875 q 1.42188,0 2.35938,-0.828125 0.9375,-0.828125 1,-2.046875 h 3.57812 q -0.0625,1.578125 -0.98437,2.953125 -0.92188,1.359375 -2.5,2.15625 -1.57813,0.796875 -3.40625,0.796875 -3.54688,0 -5.625,-2.296875 -2.07813,-2.296875 -2.07813,-6.34375 V -8.71875 q 0,-3.859375 2.0625,-6.171875 2.0625,-2.328125 5.625,-2.328125 3.01563,0 4.90625,1.765625 1.90625,1.75 2,4.609375 H 652.875 q -0.0625,-1.453125 -1,-2.390625 -0.92188,-0.9375 -2.35938,-0.9375 -1.84375,0 -2.84375,1.34375 -1,1.328125 -1.01562,4.046875 v 0.609375 q 0,2.75 0.98437,4.109375 1,1.34375 2.875,1.34375 z" stroke-width="0" stroke-linejoin="miter" stroke-miterlimit="2" fill="#7996ed" stroke="#7996ed" transform="translate(0 346.68090624999996) translate(646.5898400000001 61.0859375) scale(0.75) translate(-641.85937 17.21875)"/>
      <path id="path381854" style="font-style:normal;font-weight:500;font-size:32px;line-height:1;font-family:Roboto;font-variant-ligatures:none;text-align:center;text-anchor:middle" d="m 668.17187,-13.4375 q -0.75,-0.125 -1.54687,-0.125 -2.60938,0 -3.51563,2 V 0 h -3.79687 v -16.90625 h 3.625 l 0.0937,1.890625 q 1.375,-2.203125 3.8125,-2.203125 0.8125,0 1.34375,0.21875 z" stroke-width="0" stroke-linejoin="miter" stroke-miterlimit="2" fill="#7996ed" stroke="#7996ed" transform="translate(0 346.68090624999996) translate(664.9296875000001 61.0859375) scale(0.75) translate(-659.3125 17.21875)"/>
      <path id="path381856" style="font-style:normal;font-weight:500;font-size:32px;line-height:1;font-family:Roboto;font-variant-ligatures:none;text-align:center;text-anchor:middle" d="m 677.70312,0.3125 q -3.60937,0 -5.85937,-2.265625 -2.23438,-2.28125 -2.23438,-6.0625 v -0.46875 q 0,-2.53125 0.96875,-4.515625 0.98438,-2 2.75,-3.109375 1.76563,-1.109375 3.9375,-1.109375 3.45313,0 5.32813,2.203125 1.89062,2.203125 1.89062,6.234375 V -7.25 H 673.4375 q 0.17187,2.09375 1.39062,3.3125 1.23438,1.21875 3.09375,1.21875 2.60938,0 4.25,-2.109375 L 684.21875,-2.875 Q 683.20312,-1.359375 681.5,-0.515625 679.8125,0.3125 677.70312,0.3125 Z M 677.25,-14.171875 q -1.5625,0 -2.53125,1.09375 -0.95313,1.09375 -1.21875,3.046875 h 7.23437 v -0.28125 q -0.125,-1.90625 -1.01562,-2.875 -0.89063,-0.984375 -2.46875,-0.984375 z" stroke-width="0" stroke-linejoin="miter" stroke-miterlimit="2" fill="#7996ed" stroke="#7996ed" transform="translate(0 346.68090624999996) translate(677.9023400000001 61.0859375) scale(0.75) translate(-669.60937 17.21875)"/>
      <path id="path381858" style="font-style:normal;font-weight:500;font-size:32px;line-height:1;font-family:Roboto;font-variant-ligatures:none;text-align:center;text-anchor:middle" d="m 697.54687,0 q -0.25,-0.484375 -0.4375,-1.578125 -1.8125,1.890625 -4.4375,1.890625 -2.54687,0 -4.15625,-1.453125 -1.60937,-1.453125 -1.60937,-3.59375 0,-2.703125 2,-4.140625 2.01562,-1.453125 5.75,-1.453125 h 2.32812 V -11.4375 q 0,-1.3125 -0.73437,-2.09375 -0.73438,-0.796875 -2.23438,-0.796875 -1.29687,0 -2.125,0.65625 -0.82812,0.640625 -0.82812,1.640625 h -3.79688 q 0,-1.390625 0.92188,-2.59375 0.92187,-1.21875 2.5,-1.90625 1.59375,-0.6875 3.54687,-0.6875 2.96875,0 4.73438,1.5 1.76562,1.484375 1.8125,4.1875 v 7.625 q 0,2.28125 0.64062,3.640625 V 0 Z M 693.375,-2.734375 q 1.125,0 2.10937,-0.546875 1,-0.546875 1.5,-1.46875 v -3.1875 h -2.04687 q -2.10938,0 -3.17188,0.734375 -1.0625,0.734375 -1.0625,2.078125 0,1.09375 0.71875,1.75 0.73438,0.640625 1.95313,0.640625 z" stroke-width="0" stroke-linejoin="miter" stroke-miterlimit="2" fill="#7996ed" stroke="#7996ed" transform="translate(0 346.68090624999996) translate(696.1250000000001 61.0859375) scale(0.75) translate(-686.90625 17.21875)"/>
      <path id="path381860" style="font-style:normal;font-weight:500;font-size:32px;line-height:1;font-family:Roboto;font-variant-ligatures:none;text-align:center;text-anchor:middle" d="m 709.51562,-21.015625 v 4.109375 H 712.5 v 2.8125 h -2.98438 v 9.4375 q 0,0.96875 0.375,1.40625 0.39063,0.421875 1.375,0.421875 0.65625,0 1.32813,-0.15625 v 2.9375 q -1.29688,0.359375 -2.5,0.359375 -4.375,0 -4.375,-4.828125 v -9.578125 h -2.78125 v -2.8125 h 2.78125 v -4.109375 z" stroke-width="0" stroke-linejoin="miter" stroke-miterlimit="2" fill="#7996ed" stroke="#7996ed" transform="translate(0 346.68090624999996) translate(713.3984375000001 58.23828125) scale(0.75) translate(-702.9375 21.015625)"/>
      <path id="path381862" style="font-style:normal;font-weight:500;font-size:32px;line-height:1;font-family:Roboto;font-variant-ligatures:none;text-align:center;text-anchor:middle" d="M 719.42187,0 H 715.625 v -16.90625 h 3.79687 z m -4.03125,-21.296875 q 0,-0.875 0.54688,-1.453125 0.5625,-0.578125 1.59375,-0.578125 1.03125,0 1.59375,0.578125 0.5625,0.578125 0.5625,1.453125 0,0.859375 -0.5625,1.4375 -0.5625,0.5625 -1.59375,0.5625 -1.03125,0 -1.59375,-0.5625 -0.54688,-0.578125 -0.54688,-1.4375 z" stroke-width="0" stroke-linejoin="miter" stroke-miterlimit="2" fill="#7996ed" stroke="#7996ed" transform="translate(0 346.68090624999996) translate(727.9882775000001 56.50390625) scale(0.75) translate(-715.39062 23.328125)"/>
      <path id="path381864" style="font-style:normal;font-weight:500;font-size:32px;line-height:1;font-family:Roboto;font-variant-ligatures:none;text-align:center;text-anchor:middle" d="m 722.85937,-8.609375 q 0,-2.484375 0.98438,-4.46875 0.98437,-2 2.76562,-3.0625 1.78125,-1.078125 4.09375,-1.078125 3.42188,0 5.54688,2.203125 2.14062,2.203125 2.3125,5.84375 l 0.0156,0.890625 q 0,2.5 -0.96875,4.46875 -0.95312,1.96875 -2.75,3.046875 -1.78125,1.078125 -4.125,1.078125 -3.57812,0 -5.73437,-2.375 -2.14063,-2.390625 -2.14063,-6.359375 z m 3.79688,0.328125 q 0,2.609375 1.07812,4.09375 1.07813,1.46875 3,1.46875 1.92188,0 2.98438,-1.5 1.07812,-1.5 1.07812,-4.390625 0,-2.5625 -1.10937,-4.0625 -1.09375,-1.5 -2.98438,-1.5 -1.85937,0 -2.95312,1.484375 -1.09375,1.46875 -1.09375,4.40625 z" stroke-width="0" stroke-linejoin="miter" stroke-miterlimit="2" fill="#7996ed" stroke="#7996ed" transform="translate(0 346.68090624999996) translate(738.839825 61.0859375) scale(0.75) translate(-722.85935 17.21875)"/>
      <path id="path381866" style="font-style:normal;font-weight:500;font-size:32px;line-height:1;font-family:Roboto;font-variant-ligatures:none;text-align:center;text-anchor:middle" d="m 745.34375,-16.90625 0.10937,1.953125 q 1.875,-2.265625 4.92188,-2.265625 5.28125,0 5.375,6.046875 V 0 h -3.79688 v -10.953125 q 0,-1.609375 -0.70312,-2.375 -0.6875,-0.78125 -2.26563,-0.78125 -2.29687,0 -3.42187,2.078125 V 0 h -3.79688 v -16.90625 z" stroke-width="0" stroke-linejoin="miter" stroke-miterlimit="2" fill="#7996ed" stroke="#7996ed" transform="translate(0 346.68090624999996) translate(758.2695275000001 61.0859375) scale(0.75) translate(-741.76562 17.21875)"/>
    </g>
    <g id="title" style="font-style:normal;font-weight:800;font-size:72px;line-height:1;font-family:'Montserrat ExtraBold Alt1';font-variant-ligatures:none;text-align:center;text-anchor:middle" transform="translate(0 0)">
      <path id="path381869" style="font-style:normal;font-weight:800;font-size:72px;line-height:1;font-family:'Montserrat ExtraBold Alt1';font-variant-ligatures:none;text-align:center;text-anchor:middle" d="m 180.45406,0 h 14.256 v -17.28 h 23.832 v -11.016 h -38.088 z m 0,-50.4 v 11.016 h 38.088 V -50.4 Z" stroke-width="0" stroke-linejoin="miter" stroke-miterlimit="2" fill="#7996ed" stroke="#7996ed" transform="translate(0 278.97090625) translate(262.01417 65.624) scale(0.75) translate(-180.45406 50.4)"/>
      <path id="path381871" style="font-style:normal;font-weight:800;font-size:72px;line-height:1;font-family:'Montserrat ExtraBold Alt1';font-variant-ligatures:none;text-align:center;text-anchor:middle" d="m 266.26794,-39.024 h -13.68 v 18.792 c 0,3.168 -0.72,5.472 -2.088,6.984 -1.368,1.512 -3.096,2.232 -5.256,2.232 -2.16,0 -3.744,-0.648 -4.824,-2.016 -1.152,-1.296 -1.656,-3.456 -1.656,-6.408 v -19.584 h -13.68 v 21.816 c 0,5.976 1.44,10.44 4.464,13.392 3.024,3.024 7.056,4.464 12.096,4.464 2.232,0 4.392,-0.36 6.408,-1.224 2.016,-0.792 3.744,-2.016 5.184,-3.6 V 0 h 13.032 z" stroke-width="0" stroke-linejoin="miter" stroke-miterlimit="2" fill="#7591ee" stroke="#7591ee" transform="translate(0 278.97090625) translate(295.48657999999995 74.156) scale(0.75) translate(-225.08394 39.024)"/>
      <path id="path381873" style="font-style:normal;font-weight:800;font-size:72px;line-height:1;font-family:'Montserrat ExtraBold Alt1';font-variant-ligatures:none;text-align:center;text-anchor:middle" d="m 301.93719,-1.584 -3.384,-9.576 c -1.224,0.864 -2.592,1.224 -4.176,1.224 -1.296,0 -2.304,-0.36 -3.024,-1.152 -0.72,-0.792 -1.08,-1.872 -1.08,-3.312 v -12.96 h 8.928 v -10.224 h -8.928 v -10.152 h -13.68 v 10.152 h -5.688 v 10.224 h 5.688 v 13.104 c 0,4.968 1.368,8.712 4.104,11.16 2.736,2.52 6.624,3.744 11.736,3.744 1.872,0 3.6,-0.144 5.256,-0.576 1.656,-0.36 3.096,-0.936 4.248,-1.656 z" stroke-width="0" stroke-linejoin="miter" stroke-miterlimit="2" fill="#718bf0" stroke="#718bf0" transform="translate(0 278.97090625) translate(329.8525174999999 67.622) scale(0.75) translate(-270.90519 47.736)"/>
      <path id="path381875" style="font-style:normal;font-weight:800;font-size:72px;line-height:1;font-family:'Montserrat ExtraBold Alt1';font-variant-ligatures:none;text-align:center;text-anchor:middle" d="m 348.25231,-39.024 h -13.68 v 18.792 c 0,3.168 -0.72,5.472 -2.088,6.984 -1.368,1.512 -3.096,2.232 -5.256,2.232 -2.16,0 -3.744,-0.648 -4.824,-2.016 -1.152,-1.296 -1.656,-3.456 -1.656,-6.408 v -19.584 h -13.68 v 21.816 c 0,5.976 1.44,10.44 4.464,13.392 3.024,3.024 7.056,4.464 12.096,4.464 2.232,0 4.392,-0.36 6.408,-1.224 2.016,-0.792 3.744,-2.016 5.184,-3.6 V 0 h 13.032 z" stroke-width="0" stroke-linejoin="miter" stroke-miterlimit="2" fill="#6d86f1" stroke="#6d86f1" transform="translate(0 278.97090625) translate(356.9748574999999 74.156) scale(0.75) translate(-307.06831 39.024)"/>
      <path id="path381877" style="font-style:normal;font-weight:800;font-size:72px;line-height:1;font-family:'Montserrat ExtraBold Alt1';font-variant-ligatures:none;text-align:center;text-anchor:middle" d="m 375.42556,-38.304 c -2.232,0.864 -4.032,2.232 -5.4,3.96 v -4.68 h -13.032 V 0 h 13.68 v -17.928 c 0,-3.24 0.792,-5.688 2.448,-7.272 1.656,-1.584 3.96,-2.376 6.912,-2.376 0.792,0 1.8,0.072 3.096,0.216 v -12.312 c -2.88,0 -5.472,0.504 -7.704,1.368 z" stroke-width="0" stroke-linejoin="miter" stroke-miterlimit="2" fill="#6980f2" stroke="#6980f2" transform="translate(0 278.97090625) translate(394.41879499999993 73.67) scale(0.75) translate(-356.99356 39.672)"/>
      <path id="path381879" style="font-style:normal;font-weight:800;font-size:72px;line-height:1;font-family:'Montserrat ExtraBold Alt1';font-variant-ligatures:none;text-align:center;text-anchor:middle" d="m 428.02494,-16.056 c 0.144,-2.16 0.216,-3.24 0.216,-3.384 0,-4.176 -0.936,-7.776 -2.808,-10.8 -1.872,-3.024 -4.32,-5.4 -7.488,-6.984 -3.168,-1.584 -6.696,-2.448 -10.584,-2.448 -4.104,0 -7.776,0.864 -11.016,2.592 -3.312,1.728 -5.832,4.176 -7.704,7.2 -1.872,3.024 -2.736,6.48 -2.736,10.296 0,3.888 0.936,7.416 2.808,10.44 1.872,3.096 4.608,5.472 8.064,7.2 3.456,1.728 7.416,2.592 12.024,2.592 7.272,0 12.816,-2.088 16.632,-6.336 l -7.2,-7.488 c -1.44,1.224 -2.808,2.088 -4.176,2.592 -1.368,0.576 -2.952,0.792 -4.824,0.792 -2.52,0 -4.608,-0.504 -6.264,-1.584 -1.656,-1.08 -2.736,-2.664 -3.312,-4.68 z m -25.92,-12.096 c 1.44,-1.152 3.168,-1.8 5.328,-1.8 2.088,0 3.816,0.648 5.256,1.8 1.44,1.224 2.304,2.88 2.736,4.896 h -15.984 c 0.36,-2.016 1.224,-3.672 2.664,-4.896 z" stroke-width="0" stroke-linejoin="miter" stroke-miterlimit="2" fill="#657bf3" stroke="#657bf3" transform="translate(0 278.97090625) translate(416.1023299999999 73.67) scale(0.75) translate(-385.90494 39.672)"/>
      <path id="path381881" style="font-style:normal;font-weight:800;font-size:72px;line-height:1;font-family:'Montserrat ExtraBold Alt1';font-variant-ligatures:none;text-align:center;text-anchor:middle" d="m 444.66031,-50.4 h -14.688 l 12.816,39.672 7.2,-22.608 z m 54.648,0 -10.584,32.472 -5.904,17.928 h 13.752 l 16.344,-50.4 z m -20.736,0 h -13.104 l -10.656,32.184 -5.616,18.216 h 12.384 l 10.08,-30.672 5.328,16.992 6.768,-20.016 z" stroke-width="0" stroke-linejoin="miter" stroke-miterlimit="2" fill="#6175f5" stroke="#6175f5" transform="translate(0 278.97090625) translate(449.15285749999987 65.624) scale(0.75) translate(-429.97231 50.4)"/>
      <path id="path381883" style="font-style:normal;font-weight:800;font-size:72px;line-height:1;font-family:'Montserrat ExtraBold Alt1';font-variant-ligatures:none;text-align:center;text-anchor:middle" d="m 522.77356,-1.944 c 3.312,1.728 7.128,2.592 11.304,2.592 4.176,0 7.992,-0.864 11.376,-2.592 3.312,-1.728 5.976,-4.104 7.848,-7.2 1.872,-3.024 2.808,-6.552 2.808,-10.44 0,-3.888 -0.936,-7.344 -2.808,-10.368 -1.872,-3.024 -4.536,-5.4 -7.848,-7.128 -3.384,-1.728 -7.2,-2.592 -11.376,-2.592 -4.248,0 -8.064,0.864 -11.376,2.592 -3.312,1.728 -5.976,4.104 -7.848,7.128 -1.872,3.096 -2.808,6.552 -2.808,10.368 0,3.888 0.936,7.416 2.808,10.44 1.872,3.096 4.536,5.472 7.92,7.2 z m 17.208,-10.728 c -1.584,1.656 -3.528,2.448 -5.904,2.448 -2.448,0 -4.392,-0.792 -5.904,-2.448 -1.584,-1.656 -2.304,-3.96 -2.304,-6.912 0,-2.88 0.72,-5.112 2.304,-6.768 1.512,-1.584 3.456,-2.448 5.904,-2.448 2.376,0 4.32,0.864 5.904,2.448 1.512,1.656 2.304,3.888 2.304,6.768 0,2.952 -0.792,5.256 -2.304,6.912 z" stroke-width="0" stroke-linejoin="miter" stroke-miterlimit="2" fill="#5e70f6" stroke="#5e70f6" transform="translate(0 278.97090625) translate(510.7077949999999 73.67) scale(0.75) translate(-512.04556 39.672)"/>
      <path id="path381885" style="font-style:normal;font-weight:800;font-size:72px;line-height:1;font-family:'Montserrat ExtraBold Alt1';font-variant-ligatures:none;text-align:center;text-anchor:middle" d="m 580.87869,-38.304 c -2.232,0.864 -4.032,2.232 -5.4,3.96 v -4.68 h -13.032 V 0 h 13.68 v -17.928 c 0,-3.24 0.792,-5.688 2.448,-7.272 1.656,-1.584 3.96,-2.376 6.912,-2.376 0.792,0 1.8,0.072 3.096,0.216 v -12.312 c -2.88,0 -5.472,0.504 -7.704,1.368 z" stroke-width="0" stroke-linejoin="miter" stroke-miterlimit="2" fill="#5a6bf7" stroke="#5a6bf7" transform="translate(0 278.97090625) translate(548.5086425 73.67) scale(0.75) translate(-562.44669 39.672)"/>
      <path id="path381887" style="font-style:normal;font-weight:800;font-size:72px;line-height:1;font-family:'Montserrat ExtraBold Alt1';font-variant-ligatures:none;text-align:center;text-anchor:middle" d="m 635.27806,-53.424 h -13.68 v 17.784 c -2.592,-2.664 -6.192,-4.032 -10.8,-4.032 -3.6,0 -6.84,0.864 -9.72,2.448 -2.952,1.656 -5.256,4.032 -6.984,7.056 -1.728,3.024 -2.52,6.552 -2.52,10.584 0,4.032 0.792,7.632 2.52,10.656 1.728,3.096 4.032,5.472 6.984,7.128 2.88,1.656 6.12,2.448 9.72,2.448 5.04,0 8.856,-1.512 11.448,-4.536 V 0 h 13.032 z m -15.768,40.752 c -1.584,1.656 -3.528,2.448 -5.832,2.448 -2.448,0 -4.392,-0.792 -5.904,-2.448 -1.584,-1.656 -2.304,-3.96 -2.304,-6.912 0,-2.88 0.72,-5.112 2.304,-6.768 1.512,-1.584 3.456,-2.448 5.904,-2.448 2.376,0 4.32,0.864 5.832,2.448 1.512,1.656 2.304,3.888 2.304,6.768 0,2.952 -0.792,5.256 -2.304,6.912 z" stroke-width="0" stroke-linejoin="miter" stroke-miterlimit="2" fill="#5665f9" stroke="#5665f9" transform="translate(0 278.97090625) translate(570.35417 63.356) scale(0.75) translate(-591.57406 53.424)"/>
      <path id="path381889" style="font-style:normal;font-weight:800;font-size:72px;line-height:1;font-family:'Montserrat ExtraBold Alt1';font-variant-ligatures:none;text-align:center;text-anchor:middle" d="m 687.35319,-41.616 c -1.872,-2.808 -4.464,-4.968 -7.776,-6.48 -3.384,-1.512 -7.344,-2.304 -11.88,-2.304 h -23.04 v 11.232 h 22.176 c 2.88,0 5.112,0.648 6.624,1.944 1.44,1.296 2.232,3.168 2.232,5.472 0,2.376 -0.792,4.176 -2.232,5.472 -1.512,1.296 -3.744,1.872 -6.624,1.872 h -22.176 V 0 h 14.256 v -13.176 h 8.784 c 4.536,0 8.496,-0.72 11.88,-2.232 3.312,-1.512 5.904,-3.672 7.776,-6.48 1.8,-2.736 2.736,-6.048 2.736,-9.864 0,-3.744 -0.936,-7.056 -2.736,-9.864 z" stroke-width="0" stroke-linejoin="miter" stroke-miterlimit="2" fill="#5260fa" stroke="#5260fa" transform="translate(0 278.97090625) translate(610.1665175 65.624) scale(0.75) translate(-644.65719 50.4)"/>
      <path id="path381891" style="font-style:normal;font-weight:800;font-size:72px;line-height:1;font-family:'Montserrat ExtraBold Alt1';font-variant-ligatures:none;text-align:center;text-anchor:middle" d="m 715.03494,-38.304 c -2.232,0.864 -4.032,2.232 -5.4,3.96 v -4.68 h -13.032 V 0 h 13.68 v -17.928 c 0,-3.24 0.792,-5.688 2.448,-7.272 1.656,-1.584 3.96,-2.376 6.912,-2.376 0.792,0 1.8,0.072 3.096,0.216 v -12.312 c -2.88,0 -5.472,0.504 -7.704,1.368 z" stroke-width="0" stroke-linejoin="miter" stroke-miterlimit="2" fill="#4e5afb" stroke="#4e5afb" transform="translate(0 278.97090625) translate(649.12583 73.67) scale(0.75) translate(-696.60294 39.672)"/>
      <path id="path381893" style="font-style:normal;font-weight:800;font-size:72px;line-height:1;font-family:'Montserrat ExtraBold Alt1';font-variant-ligatures:none;text-align:center;text-anchor:middle" d="m 767.63431,-16.056 c 0.144,-2.16 0.216,-3.24 0.216,-3.384 0,-4.176 -0.936,-7.776 -2.808,-10.8 -1.872,-3.024 -4.32,-5.4 -7.488,-6.984 -3.168,-1.584 -6.696,-2.448 -10.584,-2.448 -4.104,0 -7.776,0.864 -11.016,2.592 -3.312,1.728 -5.832,4.176 -7.704,7.2 -1.872,3.024 -2.736,6.48 -2.736,10.296 0,3.888 0.936,7.416 2.808,10.44 1.872,3.096 4.608,5.472 8.064,7.2 3.456,1.728 7.416,2.592 12.024,2.592 7.272,0 12.816,-2.088 16.632,-6.336 l -7.2,-7.488 c -1.44,1.224 -2.808,2.088 -4.176,2.592 -1.368,0.576 -2.952,0.792 -4.824,0.792 -2.52,0 -4.608,-0.504 -6.264,-1.584 -1.656,-1.08 -2.736,-2.664 -3.312,-4.68 z m -25.92,-12.096 c 1.44,-1.152 3.168,-1.8 5.328,-1.8 2.088,0 3.816,0.648 5.256,1.8 1.44,1.224 2.304,2.88 2.736,4.896 h -15.984 c 0.36,-2.016 1.224,-3.672 2.664,-4.896 z" stroke-width="0" stroke-linejoin="miter" stroke-miterlimit="2" fill="#4a55fc" stroke="#4a55fc" transform="translate(0 278.97090625) translate(670.8093575 73.67) scale(0.75) translate(-725.51431 39.672)"/>
      <path id="path381895" style="font-style:normal;font-weight:800;font-size:72px;line-height:1;font-family:'Montserrat ExtraBold Alt1';font-variant-ligatures:none;text-align:center;text-anchor:middle" d="m 778.76394,-0.432 c 3.168,0.72 6.336,1.08 9.648,1.08 4.032,0 7.56,-0.504 10.44,-1.656 2.88,-1.08 5.112,-2.592 6.624,-4.536 1.44,-1.944 2.232,-4.176 2.232,-6.624 0,-2.952 -0.792,-5.256 -2.376,-6.912 -1.584,-1.656 -3.384,-2.808 -5.472,-3.456 -2.16,-0.576 -4.824,-1.152 -7.992,-1.656 -2.592,-0.36 -4.392,-0.72 -5.472,-1.08 -1.152,-0.36 -1.656,-1.008 -1.656,-1.944 0,-0.792 0.504,-1.44 1.512,-1.944 1.008,-0.504 2.592,-0.792 4.752,-0.792 4.032,0 7.776,1.008 11.232,2.88 l 4.104,-9.288 c -1.872,-1.008 -4.248,-1.872 -6.984,-2.448 -2.808,-0.576 -5.616,-0.864 -8.424,-0.864 -4.032,0 -7.416,0.576 -10.296,1.728 -2.88,1.152 -5.04,2.664 -6.48,4.608 -1.512,1.944 -2.232,4.176 -2.232,6.624 0,3.024 0.792,5.4 2.376,7.056 1.584,1.728 3.456,2.88 5.616,3.456 2.16,0.648 4.824,1.152 7.992,1.512 2.448,0.36 4.176,0.72 5.328,1.08 1.152,0.36 1.728,0.936 1.728,1.8 0,0.864 -0.504,1.584 -1.44,2.016 -0.936,0.432 -2.52,0.648 -4.68,0.648 -2.448,0 -4.824,-0.288 -7.272,-0.936 -2.448,-0.648 -4.608,-1.512 -6.336,-2.664 l -4.104,9.36 c 1.872,1.224 4.464,2.232 7.632,2.952 z" stroke-width="0" stroke-linejoin="miter" stroke-miterlimit="2" fill="#464ffe" stroke="#464ffe" transform="translate(0 278.97090625) translate(705.02258 73.67) scale(0.75) translate(-771.13194 39.672)"/>
      <path id="path381897" style="font-style:normal;font-weight:800;font-size:72px;line-height:1;font-family:'Montserrat ExtraBold Alt1';font-variant-ligatures:none;text-align:center;text-anchor:middle" d="m 818.13894,-0.432 c 3.168,0.72 6.336,1.08 9.648,1.08 4.032,0 7.56,-0.504 10.44,-1.656 2.88,-1.08 5.112,-2.592 6.624,-4.536 1.44,-1.944 2.232,-4.176 2.232,-6.624 0,-2.952 -0.792,-5.256 -2.376,-6.912 -1.584,-1.656 -3.384,-2.808 -5.472,-3.456 -2.16,-0.576 -4.824,-1.152 -7.992,-1.656 -2.592,-0.36 -4.392,-0.72 -5.472,-1.08 -1.152,-0.36 -1.656,-1.008 -1.656,-1.944 0,-0.792 0.504,-1.44 1.512,-1.944 1.008,-0.504 2.592,-0.792 4.752,-0.792 4.032,0 7.776,1.008 11.232,2.88 l 4.104,-9.288 c -1.872,-1.008 -4.248,-1.872 -6.984,-2.448 -2.808,-0.576 -5.616,-0.864 -8.424,-0.864 -4.032,0 -7.416,0.576 -10.296,1.728 -2.88,1.152 -5.04,2.664 -6.48,4.608 -1.512,1.944 -2.232,4.176 -2.232,6.624 0,3.024 0.792,5.4 2.376,7.056 1.584,1.728 3.456,2.88 5.616,3.456 2.16,0.648 4.824,1.152 7.992,1.512 2.448,0.36 4.176,0.72 5.328,1.08 1.152,0.36 1.728,0.936 1.728,1.8 0,0.864 -0.504,1.584 -1.44,2.016 -0.936,0.432 -2.52,0.648 -4.68,0.648 -2.448,0 -4.824,-0.288 -7.272,-0.936 -2.448,-0.648 -4.608,-1.512 -6.336,-2.664 l -4.104,9.36 c 1.872,1.224 4.464,2.232 7.632,2.952 z" stroke-width="0" stroke-linejoin="miter" stroke-miterlimit="2" fill="#424aff" stroke="#424aff" transform="translate(0 278.97090625) translate(734.55383 73.67) scale(0.75) translate(-810.50694 39.672)"/>
    </g>
  </g>
</svg>