<!DOCTYPE svg PUBLIC "-//W3C//DTD SVG 1.1//EN" "http://www.w3.org/Graphics/SVG/1.1/DTD/svg11.dtd">
<!-- Uploaded to: SVG Repo, www.svgrepo.com, Transformed by: SVG Repo Mixer Tools -->
<svg version="1.1" id="Layer_1" xmlns="http://www.w3.org/2000/svg" xmlns:xlink="http://www.w3.org/1999/xlink" viewBox="0 0 512.001 512.001" xml:space="preserve" width="800px" height="800px" fill="#000000">
<g id="SVGRepo_bgCarrier" stroke-width="0"/>
<g id="SVGRepo_tracerCarrier" stroke-linecap="round" stroke-linejoin="round"/>
<g id="SVGRepo_iconCarrier"> <path style="fill:#FFFFFF;" d="M155.328,44.992h335.249c9.616,0,17.415,7.791,17.424,17.408v210.208 c0,9.627-7.805,17.432-17.432,17.432l0,0H155.32c-9.623,0-17.424-7.801-17.424-17.424l0,0V62.4 C137.909,52.782,145.71,44.992,155.328,44.992z"/> <path style="fill:#CCCCCC;" d="M490.577,48.992c7.404,0.009,13.407,6.004,13.424,13.408v210.217 c-0.009,7.41-6.014,13.416-13.424,13.424H155.328c-7.41-0.009-13.416-6.014-13.424-13.424V62.4 c0.009-7.41,6.014-13.416,13.424-13.424h335.249 M490.577,40.976H155.328c-11.821,0.031-21.397,9.604-21.432,21.424v210.217 c0.036,11.818,9.606,21.389,21.424,21.424h335.257c11.818-0.036,21.389-9.606,21.424-21.424V62.4 C511.965,50.582,502.394,41.011,490.577,40.976z"/> <rect x="133.899" y="80.256" width="378.101" height="59.08"/> <g> <rect x="175.867" y="184.334" style="fill:#9f9d9d;" width="134.806" height="11.816"/> <rect x="175.867" y="217.618" style="fill:#9f9d9d;" width="81.164" height="11.816"/> </g> <circle style="fill:#9f9d9d;" cx="383.845" cy="216.069" r="40.304"/> <circle style="fill:#6e6e6e;" cx="432.918" cy="216.069" r="40.304"/> <path style="fill:#FFFFFF;" d="M21.432,221.96h335.24c9.627,0,17.432,7.805,17.432,17.432V449.6c0,9.627-7.805,17.432-17.432,17.432 l0,0H21.424C11.801,467.032,4,459.231,4,449.608c0-0.003,0-0.005,0-0.008V239.392C4,229.765,11.805,221.96,21.432,221.96z"/> <path style="fill:#CCCCCC;" d="M356.672,225.96c7.41,0.009,13.416,6.014,13.424,13.424v210.217 c-0.009,7.41-6.014,13.416-13.424,13.424H21.424c-7.41-0.009-13.416-6.014-13.424-13.424V239.384 c0.009-7.41,6.014-13.416,13.424-13.424H356.672 M356.672,217.96H21.424C9.606,217.995,0.036,227.566,0,239.384v210.217 c0.036,11.818,9.606,21.389,21.424,21.424h335.248c11.821-0.031,21.397-9.604,21.432-21.424V239.384 c-0.036-11.818-9.606-21.389-21.424-21.424H356.672z"/> <rect y="257.229" width="378.101" height="59.08"/> <g> <rect x="41.969" y="361.306" style="fill:#9f9d9d;" width="134.806" height="11.816"/> <rect x="41.969" y="394.581" style="fill:#9f9d9d;" width="81.164" height="11.816"/> </g> <circle style="fill:#9f9d9d;" cx="249.936" cy="393.042" r="40.304"/> <circle style="fill:#6e6e6e;" cx="299.019" cy="393.042" r="40.304"/> </g>
</svg>